<svg height="512" viewBox="0 0 512 512" width="512" xmlns="http://www.w3.org/2000/svg"><g id="Filled_outline" data-name="Filled outline"><path d="m104 208h24v16h-24z" fill="#f98500"/><path d="m488 232v112h-237.86a37.268 37.268 0 0 1 -21.79-6.99 36.237 36.237 0 0 1 -14.4-21.8l-10.79-49.53a35.76 35.76 0 0 1 -.83-7.65 36.5 36.5 0 0 1 25.32-34.54 207.32 207.32 0 0 1 129.13 0 207.206 207.206 0 0 0 50.09 9.8q7.215.51 14.48.51z" fill="#fec093"/><ellipse cx="57.231" cy="208.87" fill="#e67007" rx="33.231" ry="32.87"/><path d="m216 280a64 64 0 0 1 -64 64h-49.778a56.889 56.889 0 0 1 -56.889-56.889v-14.222a56.889 56.889 0 0 1 56.889-56.889h49.778a64 64 0 0 1 64 64z" fill="#fec9a3"/><path d="m24 281.886c0 34.305 31.837 62.114 71.111 62.114h21.333c0-37.268-56.888-99.382-56.888-99.382l57.611-28.951 2.833-7.667h-22.154c-39.273 0-73.846 27.159-73.846 61.463z" fill="#f98500"/><path d="m48 344h440a0 0 0 0 1 0 0v72a0 0 0 0 1 0 0h-440a24 24 0 0 1 -24-24v-24a24 24 0 0 1 24-24z" fill="#e0e0de"/><path d="m488 48v64l-103.37-5.74-40.63-2.26-46.24 27.12a10.909 10.909 0 0 1 -13.4-16.57l10.76-13.45a12.984 12.984 0 1 0 -23.12-8.12v19.02a16 16 0 0 1 -32 0v-40l32-24z" fill="#fec9a3"/><path d="m24 416h464v48h-464z" fill="#92563a"/><path d="m160 216.553v-.966a20.8 20.8 0 0 0 -20.805-20.8h-1.057a20.8 20.8 0 0 0 -20.805 20.8v.413h34.667a64.361 64.361 0 0 1 8 .553z" fill="#feb784"/><path d="m488 232v112h-237.86a37.268 37.268 0 0 1 -21.79-6.99c52.62-16.75 123.94-48.03 178.52-103.72q7.215.51 14.48.51z" fill="#feb784"/><path d="m488 344h-244a28 28 0 0 1 -28-28 28 28 0 0 1 28-28h244z" fill="#fec9a3"/><path d="m488 48v64l-103.37-5.74c25.04-16.71 50.63-36.24 73.47-58.26z" fill="#fec093"/><path d="m440 224h48v192h-48z" fill="#f59898"/><path d="m488 416h-153.6l-57.6 48h211.2z" fill="#885137"/><path d="m129.652 234.234-12.195 10.36 3.07 3.609a8.268 8.268 0 0 1 2.18 6.207 9.957 9.957 0 0 1 -4.09 6.6l9.875 12.586a25.71 25.71 0 0 0 10.133-17.582 24.2 24.2 0 0 0 -5.906-18.172z"/><path d="m158.7 303.242 13.571 8.469a49.689 49.689 0 0 0 0-52.293l-13.571 8.469a33.606 33.606 0 0 1 0 35.355z"/><path d="m256 136a23.778 23.778 0 0 0 16-6.271v46.271h16v-36.423a18.421 18.421 0 0 0 4.77.689 20.008 20.008 0 0 0 9.035-2.243l44.16-25.9 141.59 7.867.89-15.976-144-8a8.224 8.224 0 0 0 -4.492 1.086l-45.773 26.865a2.948 2.948 0 0 1 -2.223.16 2.914 2.914 0 0 1 -1.352-4.578l10.766-13.457a20.984 20.984 0 1 0 -37.371-13.106v19.016a8 8 0 0 1 -16 0v-36l26.668-20h213.332v-16h-216a8 8 0 0 0 -4.8 1.6l-32 24a7.986 7.986 0 0 0 -3.2 6.4v40a24.027 24.027 0 0 0 24 24zm24-43.016a4.987 4.987 0 0 1 4.984-4.984 4.987 4.987 0 0 1 3.9 8.1l-8.884 11.1z"/><path d="m488 216h-48a8 8 0 0 0 -8 8v1.487l-10.641.275c-4.72 0-9.418-.225-14.1-.552l9.565-44.847-15.648-3.336-9.9 46.429a198.321 198.321 0 0 1 -26.481-5.98l11.321-47.417-15.562-3.719-11.169 46.76a214.124 214.124 0 0 0 -25.3-5.429l9.09-46.126-15.7-3.094-9.344 47.421a216.536 216.536 0 0 0 -56.627 3.4l-9.314-50.4-15.734 2.906 9.442 51.092c-3.576.968-7.167 1.88-10.692 3.037a45.417 45.417 0 0 0 -6.961 2.989l-18.789-48.661-14.921 5.765 20.565 53.272c-.827.96-1.594 1.967-2.338 3a72.528 72.528 0 0 0 -35.647-18.862l-.009-1.994a28.838 28.838 0 0 0 -28.8-28.8h-1.056a28.709 28.709 0 0 0 -24.91 14.61h-14.492c-.419 0-.826.05-1.243.056a41.183 41.183 0 0 0 -80.6 11.6 40.2 40.2 0 0 0 9.786 26.138 61.785 61.785 0 0 0 -9.791 32.918v12.679c0 22.474 11.6 42.527 29.646 55.621a31.942 31.942 0 0 0 -29.646 31.762v24a31.688 31.688 0 0 0 4.818 16.675 7.991 7.991 0 0 0 -4.818 7.325v48a8 8 0 0 0 8 8h464a8 8 0 0 0 8-8v-240a8 8 0 0 0 -8-8zm-279.229 108.868c.478 1.1.913 2.225 1.479 3.269a35.892 35.892 0 0 0 3.844 7.863h-16.353a71.538 71.538 0 0 0 11.03-11.132zm15.229-8.868a20.024 20.024 0 0 1 20-20h188v40h-188a20.024 20.024 0 0 1 -20-20zm6.176-84.879a200.02 200.02 0 0 1 124.14 0 215.654 215.654 0 0 0 67.223 10.633h.027l10.434-.27v38.516h-188a35.777 35.777 0 0 0 -20.225 6.248c.091-1.438.225-2.866.225-4.326a68.206 68.206 0 0 0 -10.529-36.309 28.45 28.45 0 0 1 16.705-14.492zm-22.176 50.801c0 29.82-25.121 54.078-56 54.078h-28.279a85.6 85.6 0 0 0 -4.505-16.57l10.46 8.8 3.039-3.609a24.315 24.315 0 0 0 5.832-18.164 25.753 25.753 0 0 0 -10.024-17.535l-9.937 12.539a9.976 9.976 0 0 1 4.043 6.605 8.356 8.356 0 0 1 -2.16 6.254l-2.191 2.6c-10.966-27.557-33.836-57.126-45.571-71.278l41.555-17.82h2.183.018s.011 0 .017 0h35.52a58.9 58.9 0 0 1 6.278.359c27.931 3.034 49.722 25.965 49.722 53.741zm-70.75-83.313h1.055a12.829 12.829 0 0 1 12.8 12.84l-26.389.375h-.275v-.41a12.653 12.653 0 0 1 .676-3.8c.015-.046 0-.095.01-.142a12.779 12.779 0 0 1 12.123-8.863zm-80.02-14.609a24.918 24.918 0 0 1 22.916 15.016 86.235 86.235 0 0 0 -43.98 23.1 24.019 24.019 0 0 1 -4.166-13.245 25.079 25.079 0 0 1 25.23-24.871zm-25.23 96.617v-12.679c0-29.661 30.156-54.719 65.848-54.719h9.882l-51.33 22.015a8 8 0 0 0 -2.8 12.7c13.92 15.504 48.1 58.808 53.978 88.066h-12.469c-34.797 0-63.109-24.844-63.109-55.383zm0 87.383a16.016 16.016 0 0 1 16-16h384v56h-384a16.016 16.016 0 0 1 -16-16zm448 88h-448v-32h448zm0-48h-32v-176h32z"/></g></svg>