<svg height="512" viewBox="0 0 512 512" width="512" xmlns="http://www.w3.org/2000/svg"><g id="flat"><path d="m266.723 144a8 8 0 0 1 0-16 14.181 14.181 0 0 0 13.47-9.709l2.94-8.82a8 8 0 0 1 15.179 5.058l-2.939 8.822a30.164 30.164 0 0 1 -28.65 20.649z" fill="#a8a8a8"/><path d="m112 352a204.36 204.36 0 0 0 -79.083-60.178l-8.917-3.822 6.062-8.083a29.9 29.9 0 0 1 41.855-5.979l8.083 6.062a29.9 29.9 0 0 1 24.875 13.313l7.125 10.687z" fill="#029532"/><path d="m112 247.14a200.409 200.409 0 0 1 79.269-59.74l.731-.3-1.282-2.564a29.9 29.9 0 0 0 -42.609-11.966l-4.109 2.57a29.9 29.9 0 0 0 -24.875 13.313l-7.125 10.687z" fill="#029532"/><path d="m112 192a200.4 200.4 0 0 0 -79.269-59.738l-.731-.305 11.211-9.322a29.893 29.893 0 0 1 28.568-5.375l8.221 2.74a29.9 29.9 0 0 1 24.875 13.313l7.125 10.687z" fill="#029532"/><path d="m112 384a8 8 0 0 1 -8-8v-232a8 8 0 0 1 16 0v232a8 8 0 0 1 -8 8z" fill="#02a437"/><path d="m410.723 128-32 32-48-8v40l80 8v-24z" fill="#f6bb92"/><path d="m410.723 128 16-8 16-24h24l16 40v120h-72v-96z" fill="#fbb540"/><path d="m112 332.043a204.37 204.37 0 0 1 79.083-60.178l8.917-3.822-6.062-8.083a29.9 29.9 0 0 0 -41.855-5.979l-8.083 6.062a29.9 29.9 0 0 0 -24.875 13.313l-7.125 10.687z" fill="#02a437"/><path d="m354.723 232h-64v-49.373a54.626 54.626 0 0 1 16-38.627h32a54.626 54.626 0 0 1 16 38.627z" fill="#2cbff4"/><path d="m306.723 120h32v24h-32z" fill="#a8a8a8"/><path d="m306.723 120-16-8v-24h72l8 24-32 8z" fill="#eaeae8"/><path d="m266.723 88h24v24h-24z" fill="#2cbff4"/><path d="m160 488h-96l-8-80h112z" fill="#683b0d"/><path d="m48 376h128v32h-128z" fill="#834b10"/><path d="m112 276.043a200.409 200.409 0 0 0 -79.269-59.738l-.731-.305 1.282-2.564a29.9 29.9 0 0 1 42.609-11.966l4.109 2.573a29.9 29.9 0 0 1 24.875 13.313l7.125 10.687z" fill="#02a437"/><path d="m112.781 168a158.374 158.374 0 0 1 62.642-47.207l.577-.241-8.859-7.367a23.625 23.625 0 0 0 -22.576-4.247l-6.5 2.165a23.623 23.623 0 0 0 -19.657 10.521l-5.631 8.445z" fill="#02a437"/><path d="m471.814 160-29.091 64h-32l-64-24h-16v-24h24l64 16 13.277-30.98z" fill="#fdc9a6"/><path d="m432 161.02 6.446-15.04a16.465 16.465 0 0 1 15.134-9.98h3.571a16.465 16.465 0 0 1 14.99 23.279l-.327.721z" fill="#ea9d2d"/><rect fill="#fdc9a6" height="64" rx="24" width="48" x="426.723" y="40"/><path d="m426.723 56v-12.223a19.776 19.776 0 0 1 19.777-19.777 19.777 19.777 0 0 1 17.689 10.932l2.534 5.068h2.38a18.9 18.9 0 0 1 17.927 12.921 18.9 18.9 0 0 1 -4.565 19.337l-7.742 7.742-24-24z" fill="#533222"/><path d="m467.826 456 6.897-200h-56l8 200z" fill="#dc651e"/><path d="m426.723 456-32 16v16h72l1.103-32z" fill="#cbcbcb"/><g fill="#6ee7f5"><path d="m242.723 104h-16a8 8 0 0 1 0-16h16a8 8 0 0 1 0 16z"/><path d="m202.723 104h-16a8 8 0 0 1 0-16h16a8 8 0 0 1 0 16z"/><path d="m242.724 80a7.983 7.983 0 0 1 -2.531-.413l-16-5.333a8 8 0 0 1 5.059-15.179l16 5.334a8 8 0 0 1 -2.528 15.591z"/><path d="m202.724 66.668a7.982 7.982 0 0 1 -2.531-.412l-8-2.667a8 8 0 1 1 5.059-15.178l8 2.666a8 8 0 0 1 -2.528 15.591z"/><path d="m226.722 133.335a8 8 0 0 1 -2.529-15.591l16-5.333a8 8 0 1 1 5.059 15.178l-16 5.334a7.976 7.976 0 0 1 -2.53.412z"/><path d="m194.722 144a8 8 0 0 1 -2.529-15.591l8-2.667a8 8 0 1 1 5.059 15.179l-8 2.666a7.982 7.982 0 0 1 -2.53.413z"/></g></g></svg>