<svg height="512" viewBox="0 0 64 64" width="512" xmlns="http://www.w3.org/2000/svg"><g id="Layer_42" data-name="Layer 42"><path d="m8 11v-8h5a2 2 0 0 1 2 2 3.409 3.409 0 0 1 2.411-1 2.587 2.587 0 0 1 2.589 2.588v4.412z" fill="#414042"/><path d="m56 12v-5a4 4 0 0 0 -4-4h-1a2 2 0 0 0 -2 2 3.409 3.409 0 0 0 -2.411-1 2.587 2.587 0 0 0 -2.589 2.588v5.412z" fill="#58595b"/><path d="m10.131 13.967a3.984 3.984 0 0 0 7.738 0l-3.869-.967z" fill="#d1e7f8"/><path d="m18 10a1 1 0 0 0 -1-1h-6a1 1 0 0 0 -1 1v3a3.957 3.957 0 0 0 .131.967l3.869-.967 3.869.967a3.957 3.957 0 0 0 .131-.967z" fill="#ffb8a5"/><path d="m19.5 13a1.5 1.5 0 0 0 0-3h-1.5v3z" fill="#ffac96"/><path d="m8.5 10a1.5 1.5 0 0 0 0 3h1.5v-3z" fill="#ffac96"/><path d="m20 37v1h1a3 3 0 0 0 3-3v-7h-4z" fill="#ffb8a5"/><path d="m8 28h-4v7a3 3 0 0 0 3 3h1z" fill="#ffb8a5"/><path d="m14 61h8v-2a2 2 0 0 0 -2-2h-6z" fill="#6d6e71"/><path d="m8 57a2 2 0 0 0 -2 2v2h8v-4z" fill="#808285"/><path d="m54 10a1 1 0 0 0 -1-1h-6a1 1 0 0 0 -1 1v3a3.957 3.957 0 0 0 .131.967l3.869-.967 3.869.967a3.957 3.957 0 0 0 .131-.967z" fill="#ffb8a5"/><path d="m46.131 13.967a3.984 3.984 0 0 0 7.738 0l-3.869-.967z" fill="#d1e7f8"/><path d="m8 38v19h6 6v-19-1h-12z" fill="#58595b"/><path d="m44 37v1 19h6 6v-19-1z" fill="#58595b"/><path d="m55.5 13a1.5 1.5 0 0 0 0-3h-1.5v3z" fill="#ffac96"/><path d="m44.5 10a1.5 1.5 0 0 0 0 3h1.5v-3z" fill="#ffac96"/><path d="m57 38a3 3 0 0 0 3-3v-7h-4v10z" fill="#ffb8a5"/><path d="m44 28h-4v7a3 3 0 0 0 3 3h1z" fill="#ffb8a5"/><path d="m50 61h8v-2a2 2 0 0 0 -2-2h-6z" fill="#6d6e71"/><path d="m44 57a2 2 0 0 0 -2 2v2h8v-4z" fill="#808285"/><path d="m55 19h-1a4 4 0 0 1 -8 0h-1a6 6 0 0 0 -6 6v3h5v9h12v-9h5v-3a6 6 0 0 0 -6-6z" fill="#7ed63e"/><path d="m53 19a1 1 0 0 1 -1-1v-1.546a3.936 3.936 0 0 1 -4 0v1.546a1 1 0 0 1 -1 1h-1a4 4 0 0 0 8 0z" fill="#ffac96"/><path d="m19 19h-1l-4 4-4-4h-1a6 6 0 0 0 -6 6v3h5v9h12v-9h5v-3a6 6 0 0 0 -6-6z" fill="#ed1c24"/><path d="m18 19h-1a1 1 0 0 1 -1-1v-1.546a3.936 3.936 0 0 1 -4 0v1.546a1 1 0 0 1 -1 1h-1l4 4z" fill="#ffac96"/><g fill="#231f20"><path d="m19 18h-2v-1.03a5.013 5.013 0 0 0 1.9-2.97h.6a2.493 2.493 0 0 0 1.5-4.49v-2.92a3.593 3.593 0 0 0 -3.59-3.59 4.434 4.434 0 0 0 -1.86.42 3.012 3.012 0 0 0 -2.55-1.42h-5a1 1 0 0 0 -1 1v6.51a2.493 2.493 0 0 0 1.5 4.49h.6a5.013 5.013 0 0 0 1.9 2.97v1.03h-2a7.008 7.008 0 0 0 -7 7v3a1 1 0 0 0 1 1v6a4 4 0 0 0 4 4v17.18a3.01 3.01 0 0 0 -2 2.82v2a1 1 0 0 0 1 1h16a1 1 0 0 0 1-1v-2a3.01 3.01 0 0 0 -2-2.82v-17.18a4 4 0 0 0 4-4v-6a1 1 0 0 0 1-1v-3a7.008 7.008 0 0 0 -7-7zm-2-5.28-2.76-.69a.975.975 0 0 0 -.48 0l-2.76.69v-2.72h6zm-1.09 6.95-1.91 1.92-1.91-1.92a1.975 1.975 0 0 0 .91-1.67v-.1a5.05 5.05 0 0 0 2 0v.1a1.975 1.975 0 0 0 .91 1.67zm-1.91-3.67a3.025 3.025 0 0 1 -2.5-1.34l2.5-.63 2.5.63a3.025 3.025 0 0 1 -2.5 1.34zm6-4.5a.5.5 0 0 1 -.5.5h-.5v-1h.5a.5.5 0 0 1 .5.5zm-11 .5h-.5a.5.5 0 0 1 0-1h.5zm.28-3h-.28v-5h4a1 1 0 0 1 1 1 .987.987 0 0 0 .62.92 1 1 0 0 0 1.09-.21 2.425 2.425 0 0 1 1.7-.71 1.588 1.588 0 0 1 1.59 1.59v2.41h-.28a1.988 1.988 0 0 0 -1.72-1h-6a1.988 1.988 0 0 0 -1.72 1zm-4.28 26v-6h2v8a2.006 2.006 0 0 1 -2-2zm8 25h-6v-1a1 1 0 0 1 1-1h5zm1-20a1 1 0 0 0 -1 1v15h-4v-18h10v18h-4v-15a1 1 0 0 0 -1-1zm7 20h-6v-2h5a1 1 0 0 1 1 1zm2-25a2.006 2.006 0 0 1 -2 2v-8h2zm1-8h-3v-2a1 1 0 0 0 -2 0v11h-10v-11a1 1 0 0 0 -2 0v2h-3v-2a5 5 0 0 1 5-5h.59l3.7 3.71a1.014 1.014 0 0 0 1.42 0l3.7-3.71h.59a5 5 0 0 1 5 5z"/><path d="m55 18h-2v-1.03a5.013 5.013 0 0 0 1.9-2.97h.6a2.493 2.493 0 0 0 1.5-4.49v-2.51a5 5 0 0 0 -5-5h-1a3.012 3.012 0 0 0 -2.55 1.42 4.434 4.434 0 0 0 -1.86-.42 3.593 3.593 0 0 0 -3.59 3.59v2.92a2.493 2.493 0 0 0 1.5 4.49h.6a5.013 5.013 0 0 0 1.9 2.97v1.03h-2a7.008 7.008 0 0 0 -7 7v3a1 1 0 0 0 1 1v6a4 4 0 0 0 4 4v17.18a3.01 3.01 0 0 0 -2 2.82v2a1 1 0 0 0 1 1h16a1 1 0 0 0 1-1v-2a3.01 3.01 0 0 0 -2-2.82v-17.18a4 4 0 0 0 4-4v-6a1 1 0 0 0 1-1v-3a7.008 7.008 0 0 0 -7-7zm-2-5.28-2.76-.69a.975.975 0 0 0 -.48 0l-2.76.69v-2.72h6zm-4 5.28v-.1a5.05 5.05 0 0 0 2 0v.1a1.991 1.991 0 0 0 1.82 1.98 2.978 2.978 0 0 1 -5.64 0 1.991 1.991 0 0 0 1.82-1.98zm-1.5-3.34 2.5-.63 2.5.63a3 3 0 0 1 -5 0zm8.5-3.16a.5.5 0 0 1 -.5.5h-.5v-1h.5a.5.5 0 0 1 .5.5zm-11 .5h-.5a.5.5 0 0 1 0-1h.5zm.28-3h-.28v-2.41a1.588 1.588 0 0 1 1.59-1.59 2.425 2.425 0 0 1 1.7.71 1 1 0 0 0 1.09.21.987.987 0 0 0 .62-.92 1 1 0 0 1 1-1h1a3.009 3.009 0 0 1 3 3v2h-.28a1.988 1.988 0 0 0 -1.72-1h-6a1.988 1.988 0 0 0 -1.72 1zm-4.28 26v-6h2v8a2.006 2.006 0 0 1 -2-2zm8 25h-6v-1a1 1 0 0 1 1-1h5zm1-20a1 1 0 0 0 -1 1v15h-4v-18h10v18h-4v-15a1 1 0 0 0 -1-1zm7 20h-6v-2h5a1 1 0 0 1 1 1zm2-25a2.006 2.006 0 0 1 -2 2v-8h2zm1-8h-3v-2a1 1 0 0 0 -2 0v11h-10v-11a1 1 0 0 0 -2 0v2h-3v-2a5 5 0 0 1 5-5h.11a4.989 4.989 0 0 0 9.78 0h.11a5 5 0 0 1 5 5z"/><path d="m24 42.76v.24a1 1 0 0 0 2 0v-.24a.761.761 0 0 1 .76-.76h.48a.762.762 0 0 1 .76.764.994.994 0 0 1 -.553.894l-2.894 1.447a1 1 0 0 0 -.553.895v1a1 1 0 0 0 1 1h4a1 1 0 0 0 0-2h-1.764l1.106-.553a2.984 2.984 0 0 0 1.658-2.687 2.763 2.763 0 0 0 -2.76-2.76h-.48a2.763 2.763 0 0 0 -2.76 2.76z"/><path d="m32 48a1 1 0 0 0 1-1v-2.5a.5.5 0 0 1 1 0v2.5a1 1 0 0 0 2 0v-2.5a.5.5 0 0 1 1 0v2.5a1 1 0 0 0 2 0v-2.5a2.5 2.5 0 0 0 -2.5-2.5 2.471 2.471 0 0 0 -1.5.513 2.471 2.471 0 0 0 -1.5-.513 2.5 2.5 0 0 0 -2.5 2.5v2.5a1 1 0 0 0 1 1z"/><path d="m40.707 52.293-2.121-2.121a1 1 0 0 0 -1.414 1.414l.414.414h-11.172l.414-.414a1 1 0 1 0 -1.414-1.414l-2.121 2.121a1 1 0 0 0 0 1.414l2.121 2.121a1 1 0 1 0 1.414-1.414l-.414-.414h11.172l-.414.414a1 1 0 1 0 1.414 1.414l2.121-2.121a1 1 0 0 0 0-1.414z"/></g></g></svg>