<svg id="Flat" height="512" viewBox="0 0 512 512" width="512" xmlns="http://www.w3.org/2000/svg"><g><path d="m24 448h464a0 0 0 0 1 0 0v20a20 20 0 0 1 -20 20h-424a20 20 0 0 1 -20-20v-20a0 0 0 0 1 0 0z" fill="#d4d580"/><g><path d="m459.416 153.348-27.416-49.348h-8v-32h-64v32h-8l-27.416 49.348a100 100 0 0 0 -12.584 48.565v216.087a30 30 0 0 0 30 30h100a30 30 0 0 0 30-30v-216.087a100 100 0 0 0 -12.584-48.565z" fill="#f5f5f5"/><g fill="#4dccff"><path d="m312 232h160v104h-160z" transform="matrix(-1 0 0 -1 784 568)"/><rect height="48" rx="10" transform="matrix(-1 0 0 -1 784 96)" width="96" x="344" y="24"/></g></g><g><path d="m278.842 237.865a64 64 0 0 0 -94.042-67.942 64.005 64.005 0 1 0 -107.1 65.511 64.011 64.011 0 0 0 11.474 111.159 48.008 48.008 0 0 0 77.891 26 64.01 64.01 0 0 0 85.717-94.417 63.784 63.784 0 0 0 26.06-40.311z" fill="#abbf71"/><g><path d="m64.8 288a56 56 0 0 0 38.4 95.988 56 56 0 0 0 -38.4-95.988z" fill="#fdbf67"/><path d="m83.599 325.692h16v60.604h-16z" fill="#f29a49" transform="matrix(.924 -.383 .383 .924 -129.288 62.172)"/></g><g><path d="m128.8 288a56 56 0 0 0 38.4 95.988 56 56 0 0 0 -38.4-95.988z" fill="#f15a57"/><path d="m147.599 325.692h16v60.604h-16z" fill="#aa3947" transform="matrix(.924 -.383 .383 .924 -124.414 86.67)"/></g><path d="m186.79 271.492 15.501-69.757-15.619-3.47-12.761 57.424-61.228-75.133-12.403 10.107 40.206 49.337h-42.005v16h55.044l56.274 69.054 12.402-10.108z" fill="#a0b36a"/><g><path d="m232 56h-16c0-22.056 21.532-40 48-40v16c-17.645 0-32 10.767-32 24z" fill="#aa3947"/><circle cx="216" cy="80" fill="#f15a57" r="32"/></g><path d="m208 328c0 30.928 28.654 64 64 64s64-33.072 64-64-28.654-88-64-88-64 57.072-64 88z" fill="#f5f5f5"/><circle cx="272" cy="336" fill="#fdbf67" r="32"/><path d="m100 368h184a60 60 0 0 1 60 60v20a0 0 0 0 1 0 0h-304a0 0 0 0 1 0 0v-20a60 60 0 0 1 60-60z" fill="#f29a49" transform="matrix(-1 0 0 -1 384 816)"/></g><path d="m424 168h16v16h-16z" fill="#4dccff"/></g></svg>