<?xml version="1.0" encoding="iso-8859-1"?>
<!-- Generator: Adobe Illustrator 19.0.0, SVG Export Plug-In . SVG Version: 6.00 Build 0)  -->
<svg version="1.1" id="Capa_1" xmlns="http://www.w3.org/2000/svg" xmlns:xlink="http://www.w3.org/1999/xlink" x="0px" y="0px"
	 viewBox="0 0 512 512" style="enable-background:new 0 0 512 512;" xml:space="preserve">
<g>
	<path style="fill:#FF3F2E;" d="M256,0c-32.999,0-60,26.999-60,60c0,32.999,27.001,60,60,60s60-27.001,60-60
		C316,26.999,288.999,0,256,0z"/>
	<path style="fill:#FF3F2E;" d="M256,392c-32.999,0-60,26.999-60,60c0,32.999,27.001,60,60,60s60-27.001,60-60
		C316,418.999,288.999,392,256,392z"/>
</g>
<path style="fill:#1EA1E3;" d="M60,316c-33.091,0-60-26.909-60-60s26.909-60,60-60s60,26.909,60,60S93.091,316,60,316z"/>
<g>
	<path style="fill:#368DCF;" d="M452,316c-33.091,0-60-26.909-60-60s26.909-60,60-60s60,26.909,60,60S485.091,316,452,316z"/>
	<path style="fill:#368DCF;" d="M384.701,268.041L368.456,256l16.245-12.041C398.837,233.471,406,220.067,406,204.101
		c0-26.367-19.365-47.461-47.08-51.255l-27.296,14.403l-42.499,65.001l-1.031,26.431c-10.503,8.716-22.178,18.618-34.468,29.458
		l-10.753,37.236l80.001,59.374l36.323-25.844C386.752,354.818,406,333.842,406,307.899
		C406,291.933,398.837,278.529,384.701,268.041z"/>
</g>
<path style="fill:#1EA1E3;" d="M193.501,136l-40.406,17.095C125.365,156.874,106,177.851,106,204.101
	c0,15.967,7.163,29.37,21.299,39.858L143.544,256l-16.245,12.041C113.163,278.529,106,291.933,106,307.899
	c0,26.104,19.351,47.197,47.095,51.299l36.656-8.199l30.624-58.125l3.238-39.291l34.761-29.707L273.5,203.5L193.501,136z"/>
<g>
	<path style="fill:#CF0404;" d="M316,452c0,32.999-27.001,60-60,60V392C288.999,392,316,418.999,316,452z"/>
	<path style="fill:#CF0404;" d="M256,120V0c32.999,0,60,26.999,60,60C316,92.999,288.999,120,256,120z"/>
</g>
<path style="fill:#FF3F2E;" d="M359.801,162.4c0,35.999-31.501,62.399-71.7,96.299l-29.7-34.799c-0.901-0.901-1.5-1.8-2.401-2.701
	c-36-42.9-60.3-69-93.6-69c-3.3,0-6.301,0.3-9.3,0.901c3.9-27.601,24.901-47.1,51-47.1c15.899,0,29.399,7.2,39.899,21.299L256,143.5
	l12.001-16.201C278.5,113.2,292,106,307.899,106c25.801,0,46.8,19.2,51,46.8C359.5,155.499,359.801,158.5,359.801,162.4z"/>
<path style="fill:#CF0404;" d="M258.401,223.9c-0.901-0.901-1.5-1.8-2.401-2.701V143.5l12.001-16.201
	C278.5,113.2,292,106,307.899,106c25.801,0,46.8,19.2,51,46.8c0.601,2.699,0.901,5.7,0.901,9.6c0,35.999-31.501,62.399-71.7,96.299
	L258.401,223.9z"/>
<path style="fill:#FF3F2E;" d="M359.2,358.9c-4.2,27.599-25.201,47.1-51.301,47.1C292,406,278.5,398.8,268,384.699L256,368.5
	l-12.001,16.199C233.5,398.8,220,406,204.101,406c-25.801,0-46.8-19.2-51-46.8c-0.601-2.701-0.901-5.7-0.901-9.6
	c0-35.4,30-60.901,71.4-96c6.301,7.2,12.301,14.101,18.001,20.4c4.199,5.099,8.099,9.6,11.999,14.101
	c0.901,0.899,1.5,1.8,2.401,2.699c35.7,42.9,60,69,93.6,69C352.899,359.799,356.201,359.5,359.2,358.9z"/>
<path style="fill:#CF0404;" d="M349.6,359.799c3.3,0,6.601-0.298,9.6-0.899c-4.2,27.599-25.201,47.1-51.301,47.1
	C292,406,278.5,398.8,268,384.699L256,368.5v-77.701C291.7,333.699,316,359.799,349.6,359.799z"/>
<g>
</g>
<g>
</g>
<g>
</g>
<g>
</g>
<g>
</g>
<g>
</g>
<g>
</g>
<g>
</g>
<g>
</g>
<g>
</g>
<g>
</g>
<g>
</g>
<g>
</g>
<g>
</g>
<g>
</g>
</svg>
