<?xml version="1.0" encoding="iso-8859-1"?>
<!-- Generator: Adobe Illustrator 19.0.0, SVG Export Plug-In . SVG Version: 6.00 Build 0)  -->
<svg version="1.1" id="Capa_1" xmlns="http://www.w3.org/2000/svg" xmlns:xlink="http://www.w3.org/1999/xlink" x="0px" y="0px"
	 viewBox="0 0 512.002 512.002" style="enable-background:new 0 0 512.002 512.002;" xml:space="preserve">
<g>
	<circle style="fill:#80D5FF;" cx="256.001" cy="268.411" r="243.59"/>
	<circle style="fill:#80D5FF;" cx="256.001" cy="268.411" r="243.59"/>
</g>
<path style="fill:#AD7147;" d="M283.843,358.476c-10.413-12.614-25.296-27.905-45.43-42.614c-0.896,0.791-1.811,1.558-2.756,2.286
	c-3.641,2.806-5.39,7.476-4.965,12.168c0.04,0.447,0.069,0.898,0.095,1.349c14.089,14.249,34.612,38.865,47.043,71.219
	C280.219,388.122,282.202,373.202,283.843,358.476z"/>
<path style="fill:#BC7D4D;" d="M348.172,378.603c-2.439-3.792-7.722-4.021-10.443-0.442c-3.095,4.072-7.109,10.242-11.292,19.014
	c-4.981-31.728-8.112-64.06-10.062-93.452c-4.361-1.269-8.45-3.152-12.192-5.54c-1.743-1.112-3.978-0.946-5.597,0.354
	c-3.596,2.887-7.733,5.046-12.192,6.314c-4.541,67.581-15.327,150.391-40.486,205.665h36.983
	c23.489-2.579,45.973-8.492,66.967-17.265c-6.074-16.377-11.152-34.463-15.391-53.415c0.03-0.157,5.038-26.531,19.433-44.173
	c1.742-2.135,1.888-5.22,0.391-7.548L348.172,378.603z"/>
<path style="fill:#AD7147;" d="M304.182,298.183c-1.743-1.112-3.978-0.945-5.597,0.354c-3.596,2.887-7.733,5.046-12.192,6.314
	c-4.541,67.582-15.327,150.391-40.486,205.665h31.923c16.766-56.784,24.518-140.18,28.055-211.302
	C305.31,298.881,304.741,298.54,304.182,298.183z"/>
<path style="fill:#8DC610;" d="M280.23,292.453c8.683-25.584-3.54-54-28.095-65.268c-6.18-2.836-12.579-4.378-18.92-4.77
	c-3.55-0.219-6.608-2.531-7.85-5.864c-4.776-12.823-14.82-23.61-28.602-28.89c-15.935-6.105-33.051-3.37-46.031,5.759
	c-2.159,1.519-4.844,2.071-7.444,1.615c-20.085-3.527-40.5,7.515-48.068,27.27c-8.59,22.422,2.624,47.562,25.046,56.152
	c0.009,0.003,0.018,0.007,0.028,0.01c1.528,0.583,2.44,2.128,2.163,3.74c-3.617,21.069,7.957,42.444,28.678,50.382
	c6.082,2.331,10.156,1.6,12.24,6.898c4.002,10.167,12.323,18.587,23.693,22.259c18.034,5.824,37.941-2.815,46.004-19.966
	c0.931-1.981,1.675-3.994,2.24-6.022c1.218-4.365,4.457-7.932,8.822-9.149C260.417,322.071,274.324,309.852,280.23,292.453z"/>
<path style="fill:#8BBA0C;" d="M230.023,338.959c-11.37-3.672-19.691-12.092-23.693-22.259c-2.085-5.298-6.155-4.566-12.24-6.898
	c-20.721-7.938-32.295-29.313-28.678-50.382c0.277-1.612-0.635-3.157-2.163-3.74c-0.009-0.004-0.018-0.007-0.027-0.01
	c-22.422-8.59-33.636-33.73-25.046-56.152c0.649-1.694,1.399-3.318,2.228-4.88c-19.125-2.043-37.978,8.857-45.184,27.667
	c-8.59,22.422,2.624,47.562,25.046,56.152c0.009,0.003,0.018,0.007,0.028,0.01c1.528,0.583,2.44,2.127,2.163,3.74
	c-3.617,21.069,7.957,42.444,28.678,50.382c6.082,2.331,10.155,1.6,12.241,6.898c4.001,10.167,12.323,18.587,23.693,22.259
	c18.034,5.824,37.941-2.815,46.004-19.966c0.282-0.6,0.542-1.205,0.79-1.811C232.575,339.7,231.294,339.37,230.023,338.959z"/>
<path style="fill:#ABE84B;" d="M392.333,141.806c-2.225-1.202-3.153-3.871-2.259-6.237c1.191-3.149,2.003-6.499,2.365-10.007
	c1.788-17.277-7.692-33.122-22.502-40.228c-1.928-0.925-3.051-2.999-2.761-5.118c0.063-0.456,0.118-0.914,0.165-1.375
	c1.515-14.634-4.638-28.288-15.208-36.983c-1.16-0.955-1.839-2.371-1.837-3.874c0.027-19.238-14.508-35.756-34.058-37.779
	c-17.361-1.797-33.19,8.405-39.259,23.903c-0.707,1.804-2.429,2.967-4.361,3.12c-13.528,1.069-25.351,9.281-31.218,21.193
	c-0.675,1.37-1.934,2.344-3.422,2.685c-14.148,3.238-25.319,15.161-26.897,30.401c-0.505,4.88,0.025,9.628,1.41,14.028
	c0.613,1.947-0.047,4.048-1.612,5.359c-11.077,9.28-18.698,22.704-20.303,38.214c-1.239,11.969,1.289,23.455,6.614,33.295
	c0.943,1.743,0.803,3.859-0.383,5.445c-7.542,10.085-12.546,22.27-13.937,35.707c-3.924,37.908,22.267,71.974,59.236,78.45
	c1.576,0.276,2.903,1.309,3.612,2.743c5.161,10.44,15.401,18.085,27.842,19.372c9.317,0.964,18.153-1.817,25.025-7.122
	c1.619-1.25,3.854-1.41,5.597-0.341c5.955,3.653,12.783,6.082,20.197,6.849c18.362,1.901,35.38-6.744,45.047-21.035
	c0.893-1.32,2.354-2.127,3.946-2.204c17.793-0.858,32.781-14.588,34.671-32.852c0.392-3.784,0.186-7.491-0.53-11.033
	c-0.323-1.595,0.1-3.254,1.212-4.442c9.223-9.854,15.422-22.687,16.919-37.148C428.395,178.214,414.472,153.762,392.333,141.806z"/>
<path style="fill:#95DB1B;" d="M370.528,290.134c-17.43,13.456-42.984,7.742-52.866-12.25c-0.709-1.434-2.036-2.467-3.612-2.744
	c-36.969-6.476-63.16-40.542-59.236-78.45c1.391-13.437,6.395-25.622,13.937-35.707c1.187-1.587,1.326-3.703,0.383-5.446
	c-5.324-9.84-7.853-21.326-6.614-33.295c1.605-15.51,9.227-28.934,20.304-38.214c1.565-1.311,2.225-3.412,1.612-5.359
	c-1.385-4.4-1.915-9.148-1.41-14.028c1.578-15.24,12.749-27.163,26.897-30.401c1.489-0.341,2.748-1.315,3.422-2.685
	c5.08-10.314,14.629-17.844,25.879-20.376c-5.955-5.986-13.929-10.036-22.984-10.973c-17.361-1.797-33.19,8.405-39.259,23.903
	c-0.707,1.804-2.429,2.967-4.361,3.12c-13.528,1.069-25.351,9.281-31.218,21.193c-0.675,1.37-1.934,2.344-3.422,2.685
	c-14.148,3.238-25.319,15.161-26.897,30.401c-0.505,4.88,0.025,9.628,1.41,14.028c0.613,1.947-0.047,4.048-1.612,5.359
	c-11.077,9.279-18.698,22.704-20.303,38.214c-1.239,11.969,1.289,23.455,6.614,33.295c0.943,1.743,0.803,3.859-0.383,5.446
	c-7.542,10.085-12.546,22.27-13.937,35.707c-3.924,37.908,22.267,71.974,59.236,78.45c1.576,0.276,2.903,1.309,3.612,2.743
	c5.161,10.441,15.401,18.085,27.842,19.372c9.317,0.964,18.153-1.817,25.025-7.122c1.619-1.25,3.854-1.41,5.597-0.341
	c5.955,3.653,12.783,6.082,20.197,6.849c18.362,1.901,35.38-6.744,45.047-21.035c1.74-2.571,4.101-2.095,7.033-2.488
	C374.186,288.62,372.082,288.934,370.528,290.134z"/>
<path style="fill:#32CC65;" d="M395.565,435.73c-20.161,0-37.122,13.621-42.143,32.129c-0.504-0.023-1.01-0.038-1.519-0.038
	c-7.004,0-13.488,2.202-18.806,5.942c-1.396,0.982-3.311,0.773-4.342-0.6c-6.843-9.116-17.758-15.019-30.06-15.019
	c-14.621,0-27.28,8.337-33.474,20.497c-0.428,0.84-1.321,1.332-2.231,1.147c-1.75-0.358-3.561-0.547-5.418-0.547
	c-14.88,0-26.943,12.021-26.943,26.849c0.002,1.999,0.979,3.762,2.469,4.832c7.542,0.703,15.178,1.08,22.903,1.08
	c64.735,0,123.565-25.26,167.191-66.45C415.666,439.414,406.048,435.73,395.565,435.73z"/>
<path style="fill:#23B658;" d="M289.963,506.089c0-14.828,12.063-26.849,26.943-26.849c1.856,0,3.667,0.19,5.418,0.547
	c0.909,0.185,1.803-0.307,2.231-1.147c1.078-2.117,2.364-4.108,3.81-5.969c-6.863-8.831-17.592-14.527-29.669-14.527
	c-14.621,0-27.28,8.337-33.474,20.497c-0.428,0.84-1.321,1.332-2.231,1.147c-1.75-0.357-3.561-0.547-5.418-0.547
	c-14.88,0-26.943,12.021-26.943,26.849c0.002,1.999,0.979,3.762,2.469,4.832c7.542,0.703,15.178,1.08,22.903,1.08
	c11.896,0,23.589-0.86,35.029-2.508C290.361,508.531,289.964,507.358,289.963,506.089z"/>
<path style="fill:#ABE84B;" d="M157.435,404.559c-2.955-1.782-6.193,1.814-4.12,4.573c19.452,25.89,30.589,57.985,30.243,91.916
	c10.714,3.333,21.752,5.928,33.044,7.765C216.464,465.599,193.409,426.245,157.435,404.559z"/>
<path style="fill:#95DB1B;" d="M202.853,506.167c-1.383-40.321-20.281-77.088-49.866-100.273c-0.475,0.962-0.481,2.161,0.327,3.237
	c19.452,25.89,30.589,57.985,30.243,91.916C189.881,503.014,196.319,504.718,202.853,506.167z"/>
<path style="fill:#ABE84B;" d="M189.413,385.995c-2.956-2.09-6.193,2.127-4.12,5.363c20.982,32.752,32.288,73.972,29.943,117.229
	c10.881,1.834,22.005,2.951,33.325,3.291C249.541,459.783,226.242,412.032,189.413,385.995z"/>
<path style="fill:#95DB1B;" d="M185.138,387.19c-0.642,1.178-0.744,2.764,0.155,4.167c20.982,32.752,32.288,73.972,29.943,117.229
	c6.181,1.042,12.444,1.844,18.773,2.412C233.885,461.157,215.1,415.419,185.138,387.19z"/>
<path style="fill:#ABE84B;" d="M140.393,448.954c-2.135-1.046-4.474,1.065-2.977,2.683c10.687,11.553,17.901,25.213,20.633,39.85
	c7.881,3.466,15.978,6.53,24.269,9.158C178.677,479.104,163.099,460.072,140.393,448.954z"/>
<path style="fill:#95DB1B;" d="M172.252,497.185c-4.601-19.053-17.283-35.887-35.24-47.093c-0.156,0.489-0.062,1.041,0.404,1.545
	c10.687,11.553,17.901,25.213,20.633,39.85C162.707,493.535,167.449,495.425,172.252,497.185z"/>
<path style="fill:#ABE84B;" d="M293.596,451.637c1.498-1.619-0.841-3.729-2.976-2.683c-26.576,13.013-43.398,36.867-42.73,62.898
	c2.694,0.088,5.396,0.149,8.112,0.149c5.4,0,10.754-0.195,16.066-0.54C269.981,489.392,278.166,468.319,293.596,451.637z"/>
<path style="fill:#95DB1B;" d="M293.906,449.87c-0.474-0.96-1.919-1.586-3.286-0.916c-26.576,13.013-43.398,36.866-42.73,62.898
	c2.694,0.088,5.396,0.149,8.112,0.149c1.59,0,3.174-0.022,4.755-0.054C260.639,487.362,273.312,464.655,293.906,449.87z"/>
<g>
	<path style="fill:#647892;" d="M161.867,80.926c0,0-0.006,0-0.009,0c-0.863,0-15.805,0.192-27.622,11.957
		c-11.818-11.765-26.761-11.957-27.622-11.957h-0.009c-4.175,0.007-7.554,3.397-7.547,7.572c0.007,4.17,3.39,7.546,7.559,7.546
		c0.005,0,0.009,0,0.013,0c0.157,0,13.544,0.137,21.096,12.934c0.002,0.004,0.005,0.007,0.005,0.007
		c1.38,2.336,3.964,3.712,6.498,3.712c0.1-0.031,4.217,0.176,6.511-3.708c0,0,0.005-0.007,0.007-0.01
		c7.389-12.522,20.489-12.922,21.151-12.934c4.149-0.024,7.51-3.391,7.516-7.546C169.421,84.323,166.043,80.933,161.867,80.926z"/>
	<path style="fill:#647892;" d="M213.044,19.383c0.006-4.167-3.359-7.549-7.522-7.57v-0.001c-0.008,0-0.016,0-0.024,0h-0.001l0,0
		c0,0-0.016,0-0.024,0c-3.74,0-10.065,1.361-15.631,5.711c-5.566-4.35-11.891-5.711-15.631-5.711c-0.008,0-0.016,0-0.024,0l0,0
		h-0.001c-0.008,0-0.016,0-0.024,0v0.001c-4.163,0.021-7.529,3.403-7.522,7.57c0.006,4.167,3.264,7.539,7.427,7.546l0,0l0,0
		c0.245,0.008,6.026,0.255,9.253,5.723c0,0,0.005,0.007,0.007,0.011c2.965,5.009,10.171,4.831,13.031,0
		c0.002-0.004,0.005-0.007,0.005-0.007c3.229-5.472,9.011-5.719,9.255-5.727l-0.119,0.001v-0.001
		C209.661,26.923,213.037,23.55,213.044,19.383z"/>
</g>
<g>
	<path style="fill:#B4E7FC;" d="M63.178,247.582H44.364c-6.972,0-12.625-5.652-12.625-12.625s5.652-12.625,12.625-12.625h18.814
		c6.972,0,12.625,5.652,12.625,12.625S70.15,247.582,63.178,247.582z"/>
	<path style="fill:#B4E7FC;" d="M499.284,280.798h-80.796c-6.973,0-12.625,5.653-12.625,12.625s5.652,12.625,12.625,12.625h19.618
		c6.973,0,12.625,5.652,12.625,12.625c0,6.972-5.652,12.625-12.625,12.625c-9.953,0-70.266,0-78.987,0
		c-6.973,0-12.625,5.653-12.625,12.625s5.652,12.625,12.625,12.625c14.122,0,56.68,0,61.432,0c6.973,0,12.625,5.652,12.625,12.625
		c0,6.972-5.652,12.625-12.625,12.625h-5.317c-6.972,0-12.625,5.653-12.625,12.625s5.653,12.625,12.625,12.625h41.065
		C481.388,370.869,496.94,327.577,499.284,280.798z"/>
	<path style="fill:#B4E7FC;" d="M145.133,121.198H61.921c-17.1,22.509-30.375,48.079-38.854,75.75h82.957
		c6.973,0,12.625-5.652,12.625-12.625c0-6.972-5.652-12.625-12.625-12.625H89.789c-6.972,0-12.625-5.652-12.625-12.625
		c0-6.972,5.652-12.625,12.625-12.625h55.345c6.973,0,12.625-5.652,12.625-12.625C157.758,126.851,152.106,121.198,145.133,121.198z
		"/>
</g>
<g>
</g>
<g>
</g>
<g>
</g>
<g>
</g>
<g>
</g>
<g>
</g>
<g>
</g>
<g>
</g>
<g>
</g>
<g>
</g>
<g>
</g>
<g>
</g>
<g>
</g>
<g>
</g>
<g>
</g>
</svg>
