<svg viewBox="-95 0 472 472.02354" xmlns="http://www.w3.org/2000/svg"><path d="m210.644531 471.976562.398438-136 16 .046876-.398438 136zm0 0" fill="#b6ba5e"/><path d="m58.628906 288h16v184h-16zm0 0" fill="#b6ba5e"/><path d="m93.828125 326.398438-27.199219-20.398438-27.203125 20.398438-9.597656-12.796876 32-24c2.84375-2.136718 6.753906-2.136718 9.597656 0l32 24zm0 0" fill="#a67348"/><g fill="#b6ba5e"><path d="m58.628906 72.058594 16-.125.25 32-16 .125zm0 0"/><path d="m58.628906 168.039062 16-.070312.25 56-16 .070312zm0 0"/><path d="m211.058594 120.066406 16-.128906.257812 32-16 .128906zm0 0"/></g><path d="m246.257812 366.398438-27.199218-20.398438-27.199219 20.398438-9.601563-12.796876 32-24c2.847657-2.136718 6.757813-2.136718 9.601563 0l32 24zm0 0" fill="#a67348"/><path d="m211.316406 280-.6875-63.863281 16-.273438.6875 63.863281zm0 0" fill="#b6ba5e"/><path d="m21.9375 429.648438c8.027344 16.050781 27.355469 22.816406 43.640625 15.28125l-35.199219-72.34375c-3.847656-7.855469-13.289062-11.164063-21.195312-7.429688-7.910156 3.730469-11.355469 13.121094-7.742188 21.082031zm0 0" fill="#9f33d4"/><path d="m109.226562 429.648438 20.480469-43.410157c2.539063-5.183593 2.089844-11.332031-1.175781-16.089843-3.265625-4.761719-8.839844-7.394532-14.589844-6.886719-5.75.503906-10.785156 4.066406-13.171875 9.324219l-35.199219 72.34375c16.289063 7.542968 35.628907.773437 43.65625-15.28125zm0 0" fill="#6a34ba"/><path d="m173.332031 388.945312c-7.992187 3.769532-11.410156 13.304688-7.640625 21.292969l10.953125 19.410157c8.078125 15.835937 27.128907 22.585937 43.375 15.375l-25.390625-48.4375c-3.773437-7.992188-13.308594-11.410157-21.296875-7.640626zm0 0" fill="#9f33d4"/><path d="m263.929688 429.648438 9.160156-19.410157c3.617187-7.960937.171875-17.351562-7.738282-21.082031-7.910156-3.734375-17.347656-.425781-21.195312 7.429688l-24.136719 48.4375c16.390625 7.503906 35.78125.714843 43.910157-15.375zm0 0" fill="#9f33d4"/><path d="m66.628906 172.929688.023438.015624v-.066406zm0 0" fill="#6a34ba"/><path d="m66.628906 76.929688.054688.023437-.007813-.128906zm0 0" fill="#6a34ba"/><path d="m219.058594 124.929688.058594.023437-.011719-.128906zm0 0" fill="#6a34ba"/><path d="m50.628906 150.886719v-39.144531c0-8.691407 7.046875-15.742188 15.742188-15.742188h.511718c8.695313 0 15.746094 7.050781 15.746094 15.742188v39.144531l-16.691406 23.074219zm0 0" fill="#9f33d4"/><path d="m50.628906 55.046875v-39.304687c0-8.691407 7.046875-15.742188 15.742188-15.742188h.511718c8.695313 0 15.746094 7.050781 15.746094 15.742188v39.304687l-16.679687 22.914063zm0 0" fill="#9f33d4"/><path d="m21.9375 61.648438c7.988281 16.28125 27.332031 23.453124 44 16.3125l-25.664062-53.160157c-3.945313-7.414062-13.019532-10.425781-20.613282-6.839843-3.96875 1.871093-6.976562 5.3125-8.300781 9.496093-1.320313 4.183594-.839844 8.730469 1.332031 12.542969zm0 0" fill="#9f33d4"/><path d="m65.949219 77.960938c16.464843 7.121093 35.609375-.09375 43.277343-16.3125l8.984376-21.648438c2.167968-3.8125 2.648437-8.355469 1.328124-12.539062-1.324218-4.179688-4.328124-7.621094-8.296874-9.492188-7.59375-3.585938-16.664063-.582031-20.613282 6.832031l-8 17.382813zm0 0" fill="#6a34ba"/><path d="m21.9375 157.648438c7.984375 16.285156 27.332031 23.457031 44 16.3125l-15.308594-27.144532-20-37.601562c-4.199218-7.617188-13.777344-10.386719-21.394531-6.191406-7.617187 4.199218-10.386719 13.777343-6.191406 21.390624zm0 0" fill="#6a34ba"/><path d="m65.9375 173.960938c16.46875 7.132812 35.625-.085938 43.289062-16.3125l18.90625-33.214844c4.195313-7.617188 1.421876-17.195313-6.195312-21.394532-7.617188-4.195312-17.191406-1.425781-21.390625 6.191407zm0 0" fill="#6a34ba"/><path d="m50.628906 270.886719v-39.144531c0-8.691407 7.046875-15.742188 15.742188-15.742188h.511718c8.695313 0 15.746094 7.050781 15.746094 15.742188v39.144531l-16.691406 23.074219zm0 0" fill="#9f33d4"/><path d="m21.9375 277.648438c7.984375 16.285156 27.332031 23.457031 44 16.3125l-15.308594-27.144532-20-37.601562c-4.199218-7.617188-13.777344-10.386719-21.394531-6.191406-7.617187 4.199218-10.386719 13.777343-6.191406 21.390624zm0 0" fill="#6a34ba"/><path d="m65.9375 293.960938c16.46875 7.132812 35.625-.085938 43.289062-16.3125l18.90625-33.214844c4.195313-7.617188 1.421876-17.195313-6.195312-21.394532-7.617188-4.195312-17.191406-1.425781-21.390625 6.191407zm0 0" fill="#6a34ba"/><path d="m202.628906 310.886719v-39.144531c0-8.691407 7.046875-15.742188 15.742188-15.742188h.511718c8.695313 0 15.746094 7.050781 15.746094 15.742188v39.144531l-16.691406 23.074219zm0 0" fill="#9f33d4"/><path d="m173.9375 317.648438c7.984375 16.285156 27.332031 23.457031 44 16.3125l-15.308594-27.144532-20-37.601562c-4.199218-7.617188-13.777344-10.386719-21.394531-6.191406-7.617187 4.199218-10.386719 13.777343-6.191406 21.390624zm0 0" fill="#6a34ba"/><path d="m217.9375 333.960938c16.46875 7.132812 35.625-.085938 43.289062-16.3125l18.90625-33.214844c4.195313-7.617188 1.421876-17.195313-6.195312-21.394532-7.617188-4.195312-17.191406-1.425781-21.390625 6.191407zm0 0" fill="#6a34ba"/><path d="m202.628906 198.886719v-39.144531c0-8.691407 7.046875-15.742188 15.742188-15.742188h.511718c8.695313 0 15.746094 7.050781 15.746094 15.742188v39.144531l-16.691406 23.074219zm0 0" fill="#9f33d4"/><path d="m173.9375 205.648438c7.984375 16.285156 27.332031 23.457031 44 16.3125l-15.308594-27.144532-20-37.601562c-4.199218-7.617188-13.777344-10.386719-21.394531-6.191406-7.617187 4.199218-10.386719 13.777343-6.191406 21.390624zm0 0" fill="#6a34ba"/><path d="m217.9375 221.960938c16.46875 7.132812 35.625-.085938 43.289062-16.3125l18.90625-33.214844c4.195313-7.617188 1.421876-17.195313-6.195312-21.394532-7.617188-4.195312-17.191406-1.425781-21.390625 6.191407zm0 0" fill="#9f33d4"/><path d="m202.628906 102.886719v-39.144531c0-8.691407 7.046875-15.742188 15.742188-15.742188h.511718c8.695313 0 15.746094 7.050781 15.746094 15.742188v39.144531l-16.691406 23.074219zm0 0" fill="#9f33d4"/><path d="m173.9375 109.648438c7.984375 16.285156 27.332031 23.457031 44 16.3125l-15.308594-27.144532-20-37.601562c-4.199218-7.617188-13.777344-10.386719-21.394531-6.191406-7.617187 4.199218-10.386719 13.777343-6.191406 21.390624zm0 0" fill="#6a34ba"/><path d="m217.9375 125.960938c16.46875 7.132812 35.625-.085938 43.289062-16.3125l18.90625-33.214844c4.195313-7.617188 1.421876-17.195313-6.195312-21.394532-7.617188-4.195312-17.191406-1.425781-21.390625 6.191407zm0 0" fill="#6a34ba"/></svg>