<svg id="Capa_1" enable-background="new 0 0 512 512" height="512" viewBox="0 0 512 512" width="512" xmlns="http://www.w3.org/2000/svg"><g><g><g><g><g><g><g><g><g><g><g><g><g><g><g><g><g><g><g><circle cx="256" cy="256" fill="#fff0b5" r="256"/></g></g></g></g></g></g></g></g></g></g></g></g></g></g></g></g></g></g><path d="m335.739 76.87-15.845-15.845-11.498 36.759h-42.368l-36.759-36.759-43.964 59.867 70.498 70.498-31.792 65.204 28.284 28.284-3.042 8.302-81.121-81.121-13.596 6.177-28.947-28.947-5.118 10.609-29.181 102.684 117.545 117.545-21.846 30.848 60.883 60.883c2.7.084 5.407.141 8.128.141 141.385 0 256-114.615 256-256 0-3.949-.103-7.874-.28-11.78l-170.858-170.857z" fill="#ffe377"/><g><g><g><path d="m120.471 209.801c-6.829-4.144-14.843-6.53-23.414-6.53-24.963 0-42.584 22.463-35.995 51.813 5.777 25.732 25.664 44.593 38.847 54.626 6.411 4.879 15.644 3.117 19.769-3.804.26-.437.525-.884.793-1.339l20.596-49.436z" fill="#ff6379"/><path d="m143.885 203.271c-8.571 0-16.585 2.386-23.414 6.53v94.767c.268.454.533.902.793 1.339 4.124 6.921 13.358 8.683 19.769 3.804 13.183-10.033 33.07-28.893 38.847-54.626 6.589-29.351-11.032-51.814-35.995-51.814z" fill="#ff415b"/></g><g><path d="m120.471 219.848c-2.827 0-5.118-2.292-5.118-5.118v-25.44h5.118l2.559 16.53z" fill="#a55d4e"/><path d="m120.471 219.848v-30.558h5.118v25.44c.001 2.827-2.291 5.118-5.118 5.118z" fill="#905041"/></g></g><g><g><path d="m207.346 86.88v20.284h55.737l28.59-10.142-28.59-10.142z" fill="#464646"/><path d="m263.083 86.88h55.737v20.284h-55.737z" fill="#2d2d2d"/></g><g><g><path d="m185.304 73.362h21.103v47.53h-21.103z" fill="#918edd"/><path d="m206.272 61.024h22.996v72.205h-22.996z" fill="#6c67d2"/></g><g><path d="m312.997 73.362h27.864v47.53h-27.864z" fill="#6c67d2" transform="matrix(-1 0 0 -1 653.859 194.254)"/><path d="m296.897 61.024h22.996v72.205h-22.996z" fill="#534dca" transform="matrix(-1 0 0 -1 616.791 194.254)"/></g></g></g><g><path d="m405.406 199.899-30.626 6.443v60.901c-3.133-1.551-6.659-2.426-10.391-2.426-12.957 0-23.461 10.504-23.461 23.461s10.504 23.461 23.461 23.461c12.958 0 23.461-10.504 23.461-23.461v-60.033l17.556-3.693 13.07-13.027z" fill="#ff6379"/><path d="m405.406 224.553 33.853-7.122v33.498c-3.133-1.551-6.659-2.426-10.391-2.426-12.957 0-23.461 10.504-23.461 23.461s10.504 23.461 23.461 23.461 23.461-10.504 23.461-23.461v-81.937l-46.923 9.872z" fill="#ff415b"/></g><g><g><path d="m186.989 352.542v98.434h76.094l42.657-58.38-42.657-40.054z" fill="#918edd"/><path d="m263.083 352.542h76.094v98.434h-76.094z" fill="#6c67d2"/></g><path d="m263.083 352.542h-.052l.052-.039c-9.43-6.344-20.783-10.049-33.003-10.049s-23.573 3.705-33.003 10.049l.052.039h-.052v88.345l33.003-6.668 33.003 6.668 33.857-48.291z" fill="#f9f9f9"/><path d="m329.013 352.542.076-.039c-9.43-6.344-20.783-10.049-33.003-10.049s-23.573 3.705-33.003 10.049l.076.039h-.076v88.345l33.003-6.831 33.003 6.83v-88.345h-.076z" fill="#eeeae7"/><path d="m263.083 440.888c-9.43-6.344-20.783-10.049-33.003-10.049s-23.573 3.705-33.003 10.049z" fill="#d6e9f8"/><path d="m329.089 440.888c-9.43-6.344-20.783-10.049-33.003-10.049s-23.573 3.705-33.003 10.049z" fill="#b2d7f3"/></g><g><g><path d="m263.092 146.193h-.009c-17.147-.214-31.163 13.627-31.163 30.776v52.407h31.165l10.03-49.754z" fill="#a55d4e"/><path d="m263.085 229.375h31.16v-52.02c0-17.208-13.947-31.157-31.153-31.163z" fill="#905041"/></g><g><path d="m263.099 166.26h-.016c-29.993-.375-54.508 23.836-54.508 53.831v.677c0 27.23 22.074 49.303 49.303 49.303h5.209l17.544-45.341z" fill="#b36e5a"/><path d="m263.087 270.072h5.201c27.23 0 49.303-22.074 49.303-49.303 0-30.099-24.395-54.499-54.492-54.508z" fill="#a55d4e"/><g><g><g><path d="m263.095 325.816h-63.924v-9.595c0-22.13 17.94-40.069 40.069-40.069h23.855l24.312 20.035z" fill="#00ed89"/><path d="m326.995 325.816h-63.924v-49.664h23.855c22.13 0 40.069 17.94 40.069 40.069z" fill="#00dc80"/></g><g><path d="m263.079 253.279h-21.416v25.909l21.416 13.744 8.34-24.616z" fill="#d5985c"/><path d="m263.079 292.932 21.417-13.741.007-.003v-25.909h-21.416-.008z" fill="#c38858"/></g><g><path d="m263.075 175.44c-19.913 0-37.087 13.987-41.118 33.487l-.717 7.045c-.335-.045-.673-.076-1.02-.076-4.194 0-7.593 3.4-7.593 7.593s3.4 7.593 7.593 7.593c.104 0 .206-.011.309-.016 2.511 21.28 20.599 37.791 42.555 37.791l33.305-42.864z" fill="#e2a66f"/><path d="m305.947 215.896c-.347 0-.686.031-1.02.076l-.717-7.045c-4.031-19.5-21.206-33.487-41.118-33.487v8.661l-.008 84.756c21.955 0 40.044-16.511 42.555-37.791.103.004.205.016.309.016 4.194 0 7.593-3.4 7.593-7.593s-3.401-7.593-7.594-7.593z" fill="#d5985c"/></g><g><path d="m263.085 245.375h-9.465l5.632-32h3.831l3.601 24.364z" fill="#d5985c"/><path d="m272.546 245.375h-9.465v-32h3.831z" fill="#c38858"/></g><g><circle cx="241.663" cy="218.517" fill="#464646" r="3.872"/><circle cx="284.503" cy="218.517" fill="#2d2d2d" r="3.872"/></g><g><path d="m263.092 173.311v.027l-.018-.027c-22.371 0-41.666 15.714-46.195 37.622l-.012.114c2.941.656 5.996 1.013 9.135 1.013 16.127 0 30.111-9.14 37.081-22.517l12.624-5.929z" fill="#b36e5a"/><path d="m263.092 173.311v.027l-.018-.027.009 16.232c6.969 13.377 20.953 22.517 37.081 22.517 3.139 0 6.193-.357 9.135-1.013l-.012-.114c-4.529-21.908-23.824-37.622-46.195-37.622z" fill="#a55d4e"/></g></g></g></g></g></g></g></svg>