<svg id="Layer_1" enable-background="new 0 0 256 256" height="512" viewBox="0 0 256 256" width="512" xmlns="http://www.w3.org/2000/svg"><g><path d="m84.313 207.081c-.602 0-1.204-.216-1.684-.653l-36.772-33.543c-1.036-.944-1.738-2.227-1.976-3.609l-10.633-61.851c-.234-1.361.68-2.653 2.04-2.888 1.366-.229 2.654.681 2.888 2.04l10.633 61.852c.05.292.198.563.417.762l36.772 33.544c1.021.93 1.093 2.512.162 3.531-.493.541-1.169.815-1.847.815z" fill="#ebe7f2"/><path d="m94.436 227.507c-.81 0-1.604-.393-2.085-1.117l-7.929-11.946c-.764-1.15-.45-2.702.7-3.466 1.15-.762 2.702-.45 3.466.7l7.929 11.946c.764 1.15.45 2.702-.7 3.466-.426.282-.906.417-1.381.417z" fill="#ebe7f2"/><path d="m103.533 207.669c-.785 0-1.559-.369-2.045-1.06-.796-1.128-.526-2.688.603-3.483l3.142-2.215c1.128-.796 2.689-.525 3.483.603.796 1.128.526 2.688-.603 3.483l-3.142 2.215c-.437.309-.94.457-1.438.457z" fill="#ed9abc"/><path d="m171.688 207.081c-.679 0-1.354-.274-1.848-.815-.931-1.02-.858-2.602.162-3.531l36.772-33.543c.219-.2.367-.471.417-.762l10.633-61.853c.234-1.359 1.528-2.271 2.888-2.04 1.36.234 2.274 1.526 2.04 2.888l-10.633 61.852c-.237 1.382-.939 2.664-1.976 3.609l-36.772 33.542c-.479.437-1.082.653-1.683.653z" fill="#ebe7f2"/><path d="m161.564 227.507c-.476 0-.955-.135-1.381-.417-1.15-.764-1.464-2.315-.7-3.466l7.929-11.946c.765-1.15 2.315-1.462 3.466-.7 1.15.764 1.464 2.315.7 3.466l-7.929 11.946c-.481.724-1.275 1.117-2.085 1.117z" fill="#ebe7f2"/><path d="m152.467 207.669c-.498 0-1.001-.148-1.438-.457l-3.142-2.215c-1.129-.795-1.398-2.355-.603-3.483.795-1.127 2.356-1.397 3.483-.603l3.142 2.215c1.129.795 1.398 2.355.603 3.483-.487.691-1.26 1.06-2.045 1.06z" fill="#ed9abc"/><path d="m128 157.727c-38.626 0-70.051-31.425-70.051-70.051s31.425-70.05 70.051-70.05 70.051 31.424 70.051 70.05-31.425 70.051-70.051 70.051zm0-135.101c-35.869 0-65.051 29.182-65.051 65.05 0 35.869 29.182 65.051 65.051 65.051s65.051-29.182 65.051-65.051c0-35.868-29.182-65.05-65.051-65.05z" fill="#ed9abc"/><path d="m128 146.921c-32.668 0-59.245-26.577-59.245-59.245s26.577-59.245 59.245-59.245 59.245 26.577 59.245 59.245-26.577 59.245-59.245 59.245zm0-113.49c-29.911 0-54.245 24.334-54.245 54.245s24.334 54.245 54.245 54.245 54.245-24.334 54.245-54.245-24.334-54.245-54.245-54.245z" fill="#ebe7f2"/><g fill="#846f75"><path d="m110.75 189.008c-1.19-1.879-3.919-2.43-5.746-1.162 0 0-3.301 2.191-3.301 2.191l-3.68-18.075c-.453-2.23-1.582-4.229-3.273-5.784l-20.763-18.956c-4.137-3.595-9.664-4.175-14.095-.423l-10.45-33.784c-4.923-14.537-26.171-9.526-23.984 5.72 0 0 9.089 53.521 9.089 53.521.392 2.292 1.603 4.514 3.322 6.094l34.168 31.376c-1.975 1.23-2.555 3.873-1.264 5.813 0 0 10.77 16.226 10.77 16.226 1.195 1.881 3.906 2.434 5.746 1.162 0 0 33.068-21.947 33.068-21.947 1.881-1.192 2.435-3.915 1.162-5.746.001-.001-10.769-16.226-10.769-16.226zm-25.514 39.28-9.824-14.802 2.05-1.36c1.331-.843 1.497-2.885.309-3.925 0 0-36.519-33.534-36.519-33.534-.905-.833-1.569-2.05-1.775-3.252l-9.088-53.518c-.671-3.952 1.883-7.661 5.813-8.444 3.706-.743 7.348 1.428 8.464 5.039l11.331 36.627c-2.339 6.777 2.961 10.839 7.148 15.541 1.629 1.748 3.345 4.582 5.752 2.597 2.197-2.25-.486-4.132-2.044-5.952-2.434-3.211-7.737-6.404-6.065-10.717.82-.756 2.971-2.544 3.538-2.846 2.042-.917 4.511-.46 6.288 1.169l20.759 18.952c.903.831 1.51 1.9 1.751 3.094l4.085 20.064-14.278 9.476c-2.703 1.897-.02 5.92 2.766 4.166 4.05-2.687 17.543-11.644 21.36-14.18l9.824 14.802z"/><path d="m220.777 104.549c-6.237-1.239-12.343 2.398-14.22 8.465l-10.45 33.785c-4.414-3.751-9.969-3.172-14.092.42 0 0-20.772 18.966-20.772 18.966-1.685 1.549-2.813 3.547-3.267 5.775l-3.68 18.077s-3.302-2.191-3.302-2.191c-1.826-1.267-4.556-.717-5.745 1.161 0 0-10.77 16.227-10.77 16.227-1.271 1.831-.721 4.553 1.161 5.746 0 0 33.07 21.947 33.07 21.947 1.838 1.271 4.551.719 5.745-1.161 0 0 10.77-16.227 10.77-16.227 1.29-1.938.712-4.582-1.264-5.813l34.169-31.377c1.719-1.579 2.93-3.801 3.322-6.096l9.088-53.52c1.129-6.636-3.16-12.867-9.763-14.184zm4.835 13.347-9.087 53.516c-.207 1.205-.871 2.422-1.776 3.254l-36.52 33.535c-1.184 1.034-1.026 3.089.309 3.925 0 0 2.05 1.36 2.05 1.36l-9.824 14.802-31.645-21.002 9.824-14.802c3.739 2.484 17.379 11.539 21.36 14.18.426.282.905.417 1.381.417 2.399.059 3.451-3.271 1.385-4.583 0 0-14.278-9.476-14.278-9.476l4.085-20.066c.241-1.191.848-2.261 1.744-3.085l20.769-18.963c1.773-1.624 4.241-2.085 6.249-1.182.6.317 2.755 2.106 3.574 2.862 1.676 4.305-3.634 7.512-6.065 10.717-1.557 1.817-4.242 3.705-2.044 5.952 2.409 1.984 4.119-.848 5.752-2.597 4.182-4.695 9.49-8.773 7.148-15.541l11.331-36.628c1.116-3.611 4.757-5.782 8.464-5.038 3.931.783 6.485 4.492 5.814 8.443z"/><path d="m160.107 114.992.001-42.282c0-.84-.422-1.624-1.123-2.087l-44.605-29.443c-1.572-1.11-3.942.154-3.877 2.087v28.577c-10.658-1.659-20.593 6.886-20.502 17.685 0 9.857 8.019 17.877 17.877 17.877 9.856 0 17.876-8.02 17.876-17.877v-23.27l19.103 11.894v19.154c-10.658-1.659-20.594 6.885-20.503 17.686.981 23.714 34.775 23.71 35.753-.001zm-30.753 0c0-7.101 5.776-12.877 12.877-12.877 1.474 0 2.918.246 4.293.732 1.559.597 3.382-.683 3.333-2.357v-23.727c0-.863-.445-1.666-1.179-2.122l-24.103-15.007c-.771-.481-1.742-.504-2.535-.063-.794.44-1.286 1.277-1.286 2.186v27.772c0 7.101-5.776 12.877-12.876 12.877-20.046-1.199-14.796-30.592 4.292-25.021 1.563.602 3.378-.686 3.333-2.358v-27.115l39.604 26.143v40.938c-.705 17.081-25.049 17.079-25.753-.001z"/></g></g></svg>