<svg id="Capa_1" enable-background="new 0 0 512 512" height="512" viewBox="0 0 512 512" width="512" xmlns="http://www.w3.org/2000/svg"><g><path d="m256.002 15 41.865 247.73-41.865 234.27c-133.1 0-241-107.9-241-241s107.9-241 241-241z" fill="#f0f9ff"/><path d="m496.998 256c0 133.1-107.9 241-241 241v-482c133.1 0 241 107.9 241 241z" fill="#d2e6fb"/><path d="m256.002 30 15-15.001-15-14.999c-68.38 0-132.67 26.63-181.02 74.98-48.35 48.35-74.98 112.64-74.98 181.02s26.63 132.67 74.98 181.02 112.64 74.98 181.02 74.98l15-15.001-15-14.999c-56.92 0-108.99-21.16-148.77-56.02l148.77-148.76 15-21.221-15-21.209-169.98 169.98c-34.86-39.78-56.02-91.85-56.02-148.77 0-124.62 101.38-226 226-226z" fill="#ff6378"/><path d="m437.018 74.98c-48.35-48.35-112.64-74.98-181.02-74.98v30c56.93 0 108.99 21.16 148.77 56.02l-81.79 81.79-66.98 66.98v42.43l.57-.57 87.42-87.43 81.99-81.99c34.86 39.78 56.02 91.85 56.02 148.77 0 124.62-101.38 226-226 226v30c68.38 0 132.67-26.63 181.02-74.98 48.36-48.35 74.98-112.64 74.98-181.02s-26.62-132.67-74.98-181.02z" fill="#e20059"/><path d="m187.891 101.755v-11.255c0-8.284-6.716-15-15-15s-15 6.716-15 15v13.364c0 14.593 11.299 26.597 25.609 27.719v9.417c0 8.284 6.716 15 15 15s15-6.716 15-15v-11.526c0-14.593-11.301-26.596-25.609-27.719z" fill="#afc5e6"/><g><path d="m386.537 355.108h-37.43c-8.284 0-15-6.716-15-15v-101.858c0-8.284 6.716-15 15-15h37.43c36.354 0 65.929 29.575 65.929 65.929s-29.575 65.929-65.929 65.929zm-22.429-30h22.43c19.812 0 35.929-16.118 35.929-35.93s-16.117-35.929-35.929-35.929h-22.43z" fill="#4f4540"/></g><path d="m256.002 179.31 25 109.869-25 145.321h-7.61c-55.41 0-100.5-45.08-100.5-100.5v-139.69c0-8.29 6.72-15 15-15z" fill="#c17d4f"/><path d="m349.112 179.31h-93.11v255.19h7.61c55.41 0 100.5-45.08 100.5-100.5v-139.69c0-8.29-6.72-15-15-15z" fill="#865240"/></g></svg>