<?xml version="1.0" encoding="utf-8"?>
<!-- Generator: Adobe Illustrator 21.0.0, SVG Export Plug-In . SVG Version: 6.00 Build 0)  -->
<svg xmlns="http://www.w3.org/2000/svg" xmlns:xlink="http://www.w3.org/1999/xlink" version="1.1" id="Layer_1" x="0px" y="0px" viewBox="0 0 256 256" style="enable-background:new 0 0 256 256;" xml:space="preserve" width="512" height="512">
<style type="text/css">
	.st0{fill:#6D6C6B;}
	.st1{fill:#60BAE2;}
	.st2{fill:#F9D0B4;}
	.st3{fill:#F45D64;}
	.st4{fill:#E9E9EA;}
	.st5{fill:#6DCC6D;}
	.st6{fill:#F9D97D;}
	.st7{fill:#231F20;}
</style>
<g id="Layer_16">
	<path class="st0" d="M169.4,87.3L169.4,87.3c0-0.9,0-1.7,0.1-2.6c0-0.6,0.1-1.2,0.1-1.7c0.1-0.8,0.1-1.5,0.2-2.2   c0.1-0.5,0.1-0.9,0.2-1.4c0.1-0.4,0.2-0.8,0.3-1.1c0.8-2.5,2.3-4.2,5.3-4.1c0.3,0,0.6,0.1,0.9,0.1c0.9,0.3,1.6,0.8,2.2,1.5   c0.2,0.3,0.4,0.5,0.6,0.8l-4.5-10.8L170.2,55c-1.2-2.7,0.1-5.9,2.8-7.1c0.3-0.1,0.6-0.2,0.9-0.3c-7.6-4.5-17-4.4-24.6,0.2   c-4.4-7.4-12.3-11.9-20.8-11.9H116c-11.8,0-23.1,4.8-31.3,13.2c0.9,1,1.4,2.3,1.5,3.6c0,0,0,0.1,0,0.1c0,0.7-0.1,1.4-0.4,2.1   l-9.1,21.6c0.7-1.4,2.1-2.3,3.6-2.4c6.4-0.3,6.1,7.7,6.3,14.6c0,0.5,0,0.9,0,1.4c0,0.6,0.1,1.2,0.2,1.8v0c0.5-0.4,1.2-0.5,1.8-0.4   c7.7,1.6,30.6,4.4,46.1-15.2c0.8-1,2.2-1.2,3.2-0.4c0.1,0.1,0.1,0.1,0.2,0.2c3.6,3.5,12.9,10.5,30.5,11   C169,87.2,169.2,87.2,169.4,87.3z"/>
	<path class="st1" d="M221.9,228.5L221.9,228.5c10-4.1,14.8-15.6,10.7-25.7c0,0,0,0,0,0l-31.5-78.3c-0.5-1.3-2-1.9-3.2-1.3   l-31.8,13.1c-1.3,0.5-1.9,2-1.4,3.2l31.5,78.3C200.4,227.8,211.8,232.6,221.9,228.5C221.9,228.5,221.9,228.5,221.9,228.5z"/>
	<path class="st1" d="M34.1,228.5L34.1,228.5c-10-4.1-14.8-15.6-10.7-25.7c0,0,0,0,0,0l31.5-78.3c0.5-1.3,2-1.9,3.2-1.3l31.8,13.1   c1.3,0.5,1.9,2,1.3,3.2l-31.5,78.3C55.6,227.8,44.2,232.6,34.1,228.5C34.1,228.5,34.1,228.5,34.1,228.5z"/>
	<path class="st1" d="M42.1,229.9L42.1,229.9l0.8,0C42.7,229.9,42.4,229.9,42.1,229.9z"/>
	<path class="st1" d="M196.2,217.8l-12.8-31.9l-14.9-2.7l-9.8,29.4c-0.8,1.9-2.9,2.8-4.8,2c-0.6-0.2-1.1-0.6-1.5-1.1l-12.9-16.1l0,0   c-0.7,1.4-2.1,2.3-3.7,2.3h-14.3c-1.4,0-2.6-0.7-3.4-1.8l-12.5,15.6c-1.3,1.6-3.6,1.8-5.1,0.6c-0.5-0.4-0.9-0.9-1.1-1.5l-9.8-29.4   l-17.2,3.1l-12.7,31.5c-2.7,6.6-8.8,11.2-15.8,12l31.9-2.7c1.7-0.1,3.2,1.1,3.3,2.8c0,0.1,0,0.2,0,0.3V250c0,1.9,1.6,3.5,3.5,3.5   c0,0,0,0,0,0h93c1.9,0,3.5-1.6,3.5-3.5v0v-19.8c0-1.7,1.4-3.1,3.1-3.1c0.1,0,0.2,0,0.3,0l27.7,2.3   C203.8,228.1,198.7,223.7,196.2,217.8z"/>
	<path class="st2" d="M164.7,139.4c-0.5-1.3,0.1-2.7,1.3-3.2c0,0,0,0,0,0l0.1,0l-1.2-3l-1.8-4.5c-0.5-1.3,0.1-2.7,1.4-3.2h0   c-0.7-1.9-1.3-3.8-1.6-5.8c-0.2-1-0.3-2-0.4-3l0,0c0-0.5,0-0.9,0-1.4c0-1.4,0.1-2.7,0.4-4.1c0.1-0.4,0.2-0.9,0.3-1.3   c0.3-1.3,0.8-2.6,1.3-3.9c0.7-1.6,1.4-3.4,2.2-5.3c0.1-0.4,0.3-0.8,0.4-1.2c0.6-1.6,1.1-3.1,1.5-4.6c0.5-1.6,0.8-3.3,0.9-4.9   c0-0.9,0.1-1.7,0.1-2.6c0-0.1,0-0.1,0-0.2c-0.2-0.1-0.4-0.1-0.6-0.1c-17.7-0.5-27-7.5-30.5-11c-0.9-0.9-2.3-0.9-3.2,0   c-0.1,0.1-0.1,0.1-0.2,0.2c-15.5,19.5-38.4,16.8-46.1,15.2c-0.6-0.1-1.3,0-1.8,0.4c0.7,4.4,3,10.1,4.8,14.2c0.9,1.9,1.4,4,1.7,6.1   c0.1,0.4,0.1,0.8,0.1,1.2c0,0.3,0,0.5,0.1,0.8c0,0.8,0,1.7,0,2.5l0,0c-0.1,1.9-0.5,3.9-1,5.8c-0.3,1-0.6,2-1,3h0   c1.3,0.5,1.9,2,1.4,3.2c0,0,0,0,0,0l-3.1,7.4l0.1,0c1.2,0.5,1.8,2,1.3,3.2l-1.8,5.3c6.7,15.6,22.1,25.7,39,25.8l0,0   c16.5,0,31.5-9.6,38.5-24.6L164.7,139.4z"/>
	<path class="st3" d="M145.5,129.7c-0.1-0.6-0.6-1-1.1-0.9c-0.1,0-0.1,0-0.2,0c-4.9,1.5-10,2.4-15.1,2.5c-5.1-0.1-10.2-1-15.1-2.5   c-0.5-0.2-1.1,0.1-1.3,0.7c0,0.1,0,0.1,0,0.2c-0.3,3.2-0.5,12,5.7,17.3c6.3,5.1,15.2,5.1,21.5,0C146,141.6,145.8,132.9,145.5,129.7   z"/>
	<path class="st4" d="M164.4,125.5l27-11.1c1.3-0.5,2.7,0.1,3.2,1.3l3.1,7.4l-31.6,13l-3.1-7.4C162.6,127.4,163.2,126,164.4,125.5   C164.4,125.5,164.4,125.5,164.4,125.5z"/>
	<path class="st4" d="M168.5,183.2l-9.8,29.4c-0.8,1.9-2.9,2.8-4.8,2c-0.6-0.2-1.1-0.6-1.5-1.1l-12.9-16.1l9.1-18.8L168.5,183.2z"/>
	<path class="st4" d="M99.5,212.6c0.8,1.9,2.9,2.8,4.8,2c0.6-0.2,1.1-0.6,1.5-1.1l12.5-15.6c-0.1-0.2-0.2-0.4-0.3-0.6l-8.4-18.7l0,0   l-19.9,4.6l0,0L99.5,212.6z"/>
	<path class="st4" d="M91.6,125.5l-27-11.1c-1.3-0.5-2.7,0.1-3.2,1.3l-3.1,7.4l31.6,13l3.1-7.4C93.4,127.4,92.8,126,91.6,125.5   C91.6,125.5,91.6,125.5,91.6,125.5z"/>
	<path class="st4" d="M129.1,139.2c5.5-0.2,11-1,16.2-2.6c0.4-2.3,0.4-4.6,0.2-6.9c-0.1-0.6-0.6-1-1.1-0.9c-0.1,0-0.1,0-0.2,0   c-4.9,1.5-10,2.4-15.1,2.5c-5.1-0.1-10.2-1-15.1-2.5c-0.5-0.2-1.1,0.1-1.3,0.7c0,0.1,0,0.1,0,0.2c-0.2,2.3-0.2,4.6,0.2,6.9   C118.1,138.2,123.6,139.1,129.1,139.2z"/>
	<path class="st2" d="M164.4,106.1c2-4.6,4.7-11.5,4.9-16c0.3-7.2-0.5-16.3,6.3-16c1.6,0.1,2.9,1,3.6,2.4L170.2,55   c-1.2-2.8,0.1-5.9,2.9-7.1c2.5-1.1,5.5-0.1,6.8,2.3l12,20.8c4,7.7,4.8,16.6,2.2,24.9l-4.5,14.6c-0.3,1.6-0.3,3.1-0.1,4.7l-25,10.3   c-1.1-2.8-1.8-5.7-2-8.7l0,0C162.3,113.1,162.9,109.5,164.4,106.1z"/>
	<path class="st2" d="M128.5,170.5L128.5,170.5c-6.6,0-13.1-1.5-19-4.5v12.6l8.4,18.7c0.7,1.5,2.1,2.4,3.7,2.4h14.3   c1.6,0,3-0.9,3.7-2.3l9.1-18.8v-13.3C142.5,168.7,135.5,170.5,128.5,170.5z"/>
	<path class="st2" d="M91.6,106.1c-2-4.6-4.7-11.5-4.9-16c-0.3-7.2,0.5-16.3-6.3-16c-1.6,0.1-2.9,1-3.6,2.4L85.8,55   c1.2-2.8-0.1-5.9-2.9-7.1c-2.5-1.1-5.5-0.1-6.8,2.3L64.1,71c-4,7.7-4.8,16.6-2.2,24.9l4.5,14.6c0.3,1.6,0.3,3.1,0.1,4.7l25,10.3   c1.1-2.8,1.8-5.7,2-8.7l0,0C93.7,113.1,93.1,109.5,91.6,106.1z"/>
	<path class="st5" d="M37.5,120.5h-1.8v-1.8c0-1.4-1.1-2.5-2.5-2.5c-1.4,0-2.5,1.1-2.5,2.5v1.8h-1.8c-1.4,0-2.5,1.1-2.5,2.5   s1.1,2.5,2.5,2.5h1.8v1.8c0,1.4,1.1,2.5,2.5,2.5c1.4,0,2.5-1.1,2.5-2.5v-1.8h1.8c1.4,0,2.5-1.1,2.5-2.5S38.8,120.5,37.5,120.5z"/>
	<path class="st3" d="M210.7,72.5c0-0.2-0.1-0.3-0.1-0.5c-0.1-0.1-0.1-0.3-0.2-0.4c-0.1-0.1-0.2-0.3-0.3-0.4c-1-0.9-2.5-0.9-3.5,0   c-0.1,0.1-0.2,0.2-0.3,0.4c-0.2,0.3-0.3,0.6-0.4,0.9c-0.1,0.3-0.1,0.7,0,1c0,0.2,0.1,0.3,0.1,0.5c0.1,0.2,0.1,0.3,0.2,0.4   c0.1,0.1,0.2,0.3,0.3,0.4c1,1,2.5,1,3.5,0c0,0,0,0,0,0c0.1-0.1,0.2-0.2,0.3-0.4c0.1-0.1,0.2-0.3,0.2-0.4c0.1-0.1,0.1-0.3,0.1-0.5   C210.7,73.2,210.7,72.9,210.7,72.5z"/>
	<path class="st1" d="M26.9,145.3c0-0.2-0.1-0.3-0.1-0.5c-0.1-0.1-0.1-0.3-0.2-0.4c-0.1-0.1-0.2-0.3-0.3-0.4c-1-0.9-2.5-0.9-3.5,0   c-0.1,0.1-0.2,0.2-0.3,0.4c-0.2,0.3-0.3,0.6-0.4,0.9c-0.1,0.3-0.1,0.7,0,1c0,0.2,0.1,0.3,0.1,0.5c0.1,0.2,0.1,0.3,0.2,0.4   c0.1,0.1,0.2,0.3,0.3,0.4c1,1,2.5,1,3.5,0c0,0,0,0,0,0c0.1-0.1,0.2-0.2,0.3-0.4c0.1-0.1,0.2-0.3,0.2-0.4c0.1-0.1,0.1-0.3,0.1-0.5   C26.9,146,26.9,145.6,26.9,145.3z"/>
	<path class="st6" d="M230.2,86.3c-4.1-0.8-7.2-4-8-8c0-0.1-0.1-0.2-0.2-0.2c-0.1,0-0.1,0.1-0.2,0.2c-0.8,4.1-4,7.2-8,8   c-0.1,0-0.2,0.1-0.2,0.2c0,0.1,0.1,0.1,0.2,0.2c4.1,0.8,7.2,4,8,8c0,0.1,0.1,0.2,0.2,0.2c0.1,0,0.1-0.1,0.2-0.2c0.8-4.1,4-7.2,8-8   c0.1,0,0.2-0.1,0.2-0.2C230.4,86.4,230.3,86.3,230.2,86.3z"/>
	<path class="st7" d="M183.9,41.8c-1.4,0-2.5-1.1-2.5-2.5c0-0.6,0.2-1.1,0.5-1.6l8.4-10.5l-9.1-0.4c-1.4-0.1-2.4-1.2-2.4-2.6   c0-0.4,0.1-0.8,0.4-1.2l13.3-21.8c0.7-1.2,2.2-1.6,3.4-1c1.2,0.7,1.6,2.2,1,3.4c0,0.1-0.1,0.1-0.1,0.2L185.7,22l9.8,0.5   c1.4,0.1,2.4,1.2,2.4,2.6c0,0.5-0.2,1-0.5,1.4l-11.5,14.4C185.4,41.5,184.7,41.8,183.9,41.8z"/>
	<path class="st7" d="M161.6,35c-1.4,0-2.5-1.1-2.5-2.5c0-0.3,0.1-0.6,0.2-0.9l3.1-8.5l-6.1,1.7c-1.3,0.4-2.7-0.4-3.1-1.7   c-0.1-0.4-0.1-0.8,0-1.2L157.7,2c0.3-1.4,1.6-2.2,2.9-2c1.4,0.3,2.2,1.6,2,2.9c0,0,0,0.1,0,0.1L159,18.9l6.8-1.9   c1.3-0.4,2.7,0.4,3.1,1.7c0.1,0.5,0.1,1-0.1,1.5L164,33.4C163.6,34.4,162.7,35,161.6,35z"/>
	<path class="st7" d="M197.8,58.8c-1.4,0-2.5-1.1-2.5-2.5c0-1,0.6-2,1.6-2.3l7.9-3.2l-5.4-3.4c-1.2-0.7-1.5-2.3-0.8-3.4   c0.2-0.4,0.5-0.6,0.9-0.9l17.8-9.9c1.2-0.7,2.7-0.2,3.4,1c0.6,1.2,0.2,2.7-0.9,3.3l-14.1,7.9l5.9,3.8c1.2,0.7,1.5,2.3,0.8,3.4   c-0.3,0.4-0.7,0.8-1.2,1l-12.5,5C198.5,58.8,198.2,58.8,197.8,58.8z"/>
	<path class="st7" d="M99.7,95.1c-3.8,0-7.6-0.4-11.4-1.1c-1.1,0.8-2.7,0.5-3.5-0.6c-0.2-0.3-0.3-0.6-0.4-1c0,0,0-0.1,0-0.1   c-0.1-0.7-0.2-1.3-0.2-2c0-0.5,0-0.9-0.1-1.4l0-1.6c-0.1-3.8-0.2-8.6-1.8-10.1c-0.5-0.4-1.2-0.6-1.9-0.5c-0.3,0-0.9,0-1.6,1.3   c-0.7,1.2-2.3,1.5-3.4,0.8c-1-0.6-1.5-2-1-3.1L83.5,54c0.1-0.3,0.2-0.7,0.2-1c0-0.1,0-0.1,0-0.2c0-0.2,0-0.5-0.1-0.7   c-0.1-0.5-0.4-0.9-0.7-1.3c-0.9-1-0.9-2.5,0-3.5c8.7-9,20.6-14,33.1-14h12.5c8.6,0,16.6,4.2,21.6,11.1c8-3.9,17.4-3.5,25,1   c1.2,0.7,1.6,2.2,0.9,3.4c-0.3,0.6-0.9,1-1.6,1.2c-0.2,0-0.3,0.1-0.5,0.2c-0.7,0.3-1.3,0.9-1.5,1.6c-0.1,0.2-0.1,0.4-0.2,0.6   c-0.1,0.5,0,1.1,0.2,1.6l9.1,21.6c0.5,1.3-0.1,2.7-1.3,3.3c-1.1,0.5-2.4,0.1-3.1-1c-0.1-0.2-0.2-0.4-0.4-0.5   c-0.2-0.3-0.6-0.5-0.9-0.7c-0.1,0-0.2-0.1-0.3-0.1c-1.3-0.1-2.2,0.3-2.8,2.3c-0.1,0.3-0.2,0.6-0.2,0.9c-0.1,0.4-0.2,0.8-0.2,1.2   c-0.1,0.6-0.2,1.3-0.2,2.1c0,0.5-0.1,1.1-0.1,1.7c0,0.8-0.1,1.7-0.1,2.5c0,0.8-0.4,1.5-1.1,2c-0.6,0.5-1.5,0.6-2.2,0.4   c-17.9-0.5-27.7-7.4-32-11.6C125.4,92.2,110.4,95.1,99.7,95.1z M89.1,89.1L89.1,89.1c8.4,1.8,29.3,3.9,43.7-14.3   c1.6-2.1,4.7-2.4,6.7-0.8c0.1,0.1,0.3,0.2,0.4,0.3c2.9,2.8,11.1,9.3,27,10.2c0-0.6,0.1-1.2,0.1-1.8c0.1-0.9,0.1-1.7,0.2-2.4   c0.1-0.5,0.2-1.1,0.3-1.6c0.1-0.5,0.2-0.9,0.4-1.3c1.3-4.3,4.1-5.6,6.6-5.8L167.9,56c-1.1-2.6-0.7-5.6,1-7.9   c-6.1-2.2-12.8-1.5-18.3,1.9c-1.2,0.7-2.7,0.3-3.4-0.9c0,0,0,0,0,0c-3.9-6.6-11-10.6-18.7-10.7H116c-10.4,0-20.5,3.9-28.1,11.1   c0.2,0.4,0.4,0.9,0.5,1.3c0.2,0.6,0.3,1.2,0.3,1.8c0,0.1,0,0.2,0,0.3c0,1-0.2,2.1-0.6,3l-6.6,15.7c1.6,0.1,3.1,0.8,4.2,1.8   c3.1,2.9,3.3,8.4,3.4,13.6l0,1.5C89.1,88.8,89.1,89,89.1,89.1z"/>
	<path class="st7" d="M128.5,173c-18,0-34.2-10.7-41.3-27.3c-0.2-0.6-0.3-1.2-0.1-1.8l1.8-5.3c0,0,0-0.1,0-0.1   c-0.6-0.2-1.1-0.7-1.4-1.3c-0.3-0.6-0.3-1.3,0-1.9l3.1-7.4c-1.2-0.5-1.8-1.9-1.4-3.2c0.3-0.9,0.6-1.8,0.9-2.7   c0.5-1.7,0.8-3.5,0.9-5.2c0-0.7,0-1.5,0-2.2c0-0.2,0-0.4,0-0.7c0-0.4-0.1-0.7-0.1-1.1c-0.3-1.9-0.8-3.7-1.5-5.4   c-1.9-4.2-4.2-10.2-4.9-14.8c-0.1-0.9,0.2-1.8,1-2.4c1.1-0.8,2.5-1.1,3.8-0.8c8.3,1.7,29.3,3.8,43.7-14.3c1.6-2.1,4.7-2.4,6.7-0.8   c0.1,0.1,0.3,0.2,0.4,0.3c3,2.9,11.8,9.8,28.9,10.3c0.5,0,0.9,0.1,1.3,0.2c1.1,0.3,1.8,1.3,1.7,2.4v0.2c0,0.9,0,1.8-0.1,2.7   c-0.1,1.8-0.4,3.7-1,5.5c-0.4,1.5-0.9,3.1-1.5,4.8c-0.1,0.4-0.3,0.8-0.4,1.2c-0.7,1.7-1.4,3.5-2.2,5.4c-0.5,1.1-0.9,2.3-1.2,3.4   c-0.1,0.4-0.2,0.8-0.2,1.2c-0.2,1.2-0.3,2.4-0.3,3.6c0,0.4,0,0.8,0,1.2c0.1,0.9,0.2,1.8,0.3,2.7c0.3,1.8,0.8,3.6,1.5,5.3   c0.5,1.3-0.1,2.7-1.3,3.2l3,7.4c0.5,1.3-0.1,2.7-1.4,3.3c0,0,0,0,0,0c0,0,0,0.1,0,0.1l2.3,6.4c0.2,0.6,0.2,1.3-0.1,1.9   C161.8,162.8,146,172.9,128.5,173z M92.1,144.6c9.2,20.1,32.9,28.9,52.9,19.8c8.4-3.8,15.2-10.4,19.2-18.6l-1.9-5.4   c-0.7-1.7-0.4-3.5,0.7-4.9l-2.4-5.7c-0.7-1.7-0.4-3.6,0.7-5c-0.5-1.5-0.9-3-1.1-4.5c-0.2-1.1-0.3-2.1-0.4-3.2c0-0.5,0-1,0-1.5   c0-1.5,0.1-3,0.4-4.5c0.1-0.5,0.2-1,0.3-1.5c0.4-1.5,0.8-2.9,1.4-4.3c0.8-1.8,1.5-3.5,2.1-5.1c0.1-0.4,0.3-0.7,0.4-1.1   c0.6-1.6,1.1-3.1,1.4-4.4c0.4-1.4,0.7-2.9,0.8-4.4c0-0.1,0-0.3,0-0.4c-16.7-0.9-26-7.5-30.2-11.5c-15.4,19.2-37.9,17.7-46.7,16.2   c1.1,3.7,2.4,7.3,4,10.8c0.9,2.2,1.6,4.4,1.9,6.8c0.1,0.4,0.1,0.9,0.1,1.3c0,0.3,0,0.6,0.1,0.9c0,0.9,0,1.9,0,2.8   c-0.1,2.1-0.5,4.2-1.1,6.3c-0.1,0.5-0.3,1-0.4,1.5c0.7,0.9,1.1,2,1.1,3.1c0,0.7-0.1,1.3-0.4,1.9l-2.4,5.7c1.1,1.4,1.4,3.3,0.7,4.9   L92.1,144.6z"/>
	<path class="st7" d="M214.4,232.5c-9,0-17.1-5.4-20.5-13.7l-31.5-78.4c-1-2.5,0.2-5.4,2.7-6.5l31.8-13.1c2.5-1,5.5,0.2,6.5,2.7   l31.5,78.4c4.6,11.3-0.8,24.3-12.1,28.9l0,0C220.2,231.9,217.3,232.5,214.4,232.5z M220.9,226.2l1,2.3L220.9,226.2   c8.8-3.6,12.9-13.6,9.3-22.4c0,0,0,0,0,0l-31.5-78.4L167,138.5l31.5,78.3C202.2,225.6,212.2,229.8,220.9,226.2L220.9,226.2z"/>
	<path class="st7" d="M166.2,138.7c-1,0-1.9-0.6-2.3-1.5l-3.1-7.4c-1-2.5,0.2-5.5,2.7-6.5l0,0l27-11.1c2.5-1,5.5,0.2,6.5,2.7   l3.1,7.4c0.5,1.3-0.1,2.7-1.4,3.3l-31.6,13C166.8,138.6,166.5,138.7,166.2,138.7z M165.4,127.8L165.4,127.8l2.1,5.1l27-11.1   l-2.1-5.1L165.4,127.8L165.4,127.8z"/>
	<path class="st7" d="M164.4,128c-1,0-1.9-0.6-2.3-1.6c-1.2-3-1.9-6.2-2.1-9.5c-0.2-4,0.5-8.1,2.1-11.8l0,0c2.9-6.6,4.6-12,4.7-15.1   c0-0.9,0.1-1.9,0.1-2.9c0.1-5.3,0.2-10.7,3.4-13.6c1.2-1.1,2.7-1.7,4.2-1.8L167.9,56c-1.7-4,0.2-8.7,4.2-10.4   c3.7-1.6,8-0.1,9.9,3.4l12,20.8c0,0,0,0.1,0.1,0.1c4.3,8.3,5.2,17.9,2.4,26.8l-4.5,14.5c-0.2,1.2-0.2,2.5-0.1,3.8   c0.1,1.1-0.5,2.2-1.5,2.6l-25,10.3C165.1,127.9,164.8,128,164.4,128z M175.3,76.7c-0.6-0.1-1.2,0.1-1.6,0.5   c-1.6,1.5-1.7,6.3-1.8,10.1c0,1,0,2-0.1,3c-0.2,4.8-2.9,11.8-5.1,16.9l0,0c-1.3,3-1.9,6.2-1.7,9.4c0.1,1.9,0.4,3.8,1,5.6l20.8-8.6   c0-1.2,0.1-2.5,0.3-3.7c0-0.1,0-0.1,0-0.2l4.5-14.6c2.4-7.6,1.7-15.9-2-23l-11.9-20.7c-0.8-1.4-2.6-1.9-4-1.1   c-1.3,0.7-1.8,2.3-1.2,3.7l9.1,21.6c0.5,1.3-0.1,2.7-1.3,3.3c-1.1,0.5-2.4,0.1-3.1-1c-0.8-1.2-1.4-1.2-1.6-1.3   C175.5,76.7,175.4,76.7,175.3,76.7z M164.4,106.1L164.4,106.1z"/>
	<path class="st7" d="M181.8,93.7h-0.1c-1.4-0.1-2.4-1.2-2.4-2.6c0.1-2.3,0-9.2-1.8-12.7c-0.6-1.2-0.2-2.7,1.1-3.4s2.7-0.2,3.4,1.1   c2.8,5.4,2.4,14.8,2.4,15.2C184.2,92.6,183.1,93.7,181.8,93.7z"/>
	<path class="st7" d="M155.3,217.4c-1.9,0-3.6-0.8-4.8-2.3L137.6,199c-0.6-0.8-0.7-1.8-0.3-2.7l9.1-18.8c0.5-1,1.7-1.6,2.8-1.3   l19.9,4.6c1.3,0.3,2.2,1.7,1.9,3c0,0.1,0,0.2-0.1,0.2l-9.8,29.4c0,0.1,0,0.1-0.1,0.1c-0.8,2-2.6,3.5-4.8,3.8   C155.9,217.4,155.6,217.4,155.3,217.4z M142.5,197.1l11.9,14.8c0.4,0.5,1.1,0.6,1.6,0.2c0.1-0.1,0.2-0.3,0.3-0.4l8.9-26.7   l-15.2-3.5L142.5,197.1z"/>
	<path class="st7" d="M102.9,217.4c-0.3,0-0.6,0-0.9-0.1c-2.2-0.3-4-1.7-4.8-3.8c0,0,0-0.1-0.1-0.1L87.3,184   c-0.4-1.3,0.3-2.7,1.6-3.2c0.1,0,0.2,0,0.2-0.1l19.9-4.6c1.2-0.3,2.4,0.3,2.8,1.4l8.4,18.7c0,0.1,0.1,0.1,0.1,0.2   c0.6,0.9,0.5,2.1-0.1,2.9l-12.5,15.6C106.5,216.5,104.7,217.4,102.9,217.4z M101.8,211.7c0.3,0.6,1,0.8,1.5,0.6   c0.2-0.1,0.3-0.2,0.4-0.3l11.5-14.4l-7.2-16.1L92.9,185L101.8,211.7z"/>
	<path class="st7" d="M135.9,202.2h-14.3c-2.6,0-4.9-1.5-6-3.9l-8.4-18.7c-0.1-0.3-0.2-0.7-0.2-1V166c0-1.4,1.1-2.5,2.5-2.5   c0.4,0,0.8,0.1,1.1,0.3c5.5,2.8,11.6,4.2,17.8,4.2c6.6,0,13.2-1.7,19-4.8c1.2-0.7,2.7-0.2,3.4,1c0.2,0.4,0.3,0.8,0.3,1.2v13.3   c0,0.4-0.1,0.8-0.2,1.1l-9.1,18.8C140.7,200.8,138.4,202.2,135.9,202.2z M112,178.1l8.2,18.2c0.3,0.6,0.8,0.9,1.4,0.9h14.3   c0.6,0,1.1-0.3,1.4-0.9l8.9-18.3v-8.7c-5.6,2.4-11.6,3.7-17.7,3.7c-5.6,0-11.2-1.1-16.5-3.1V178.1z"/>
	<path class="st7" d="M41.6,232.5c-12.2,0-22.2-10-22.1-22.2c0-2.9,0.6-5.7,1.7-8.4l31.5-78.3c1-2.5,3.9-3.8,6.5-2.7c0,0,0,0,0,0   l31.8,13.1c2.5,1,3.8,4,2.7,6.5c0,0,0,0,0,0l-31.5,78.3C58.7,227,50.6,232.5,41.6,232.5z M57.2,125.4l-31.5,78.3   c-3.6,8.8,0.6,18.8,9.3,22.4c0,0,0,0,0,0l0,0c8.8,3.6,18.8-0.6,22.4-9.3L89,138.5L57.2,125.4z"/>
	<path class="st7" d="M89.8,138.7c-0.3,0-0.6-0.1-1-0.2l-31.6-13c-1.3-0.5-1.9-2-1.4-3.3l3.1-7.4c1-2.5,4-3.8,6.5-2.7l27,11.1l0,0   c2.5,1,3.8,4,2.7,6.5l-3.1,7.4C91.8,138.1,90.9,138.7,89.8,138.7L89.8,138.7z M61.5,121.8l27,11.1l2.1-5.1l-27-11.1L61.5,121.8z"/>
	<path class="st7" d="M91.6,128c-0.3,0-0.6-0.1-1-0.2l-25-10.3c-1-0.4-1.7-1.5-1.5-2.6c0.2-1.3,0.1-2.5-0.1-3.8l-4.5-14.5   c-2.8-8.9-1.9-18.5,2.4-26.8c0,0,0-0.1,0.1-0.1l12-20.8c2.2-3.8,7-5.1,10.8-2.9c3.5,2,4.9,6.3,3.4,9.9l-6.6,15.7   c1.6,0.1,3.1,0.8,4.2,1.8c3.1,2.9,3.2,8.4,3.4,13.6c0,1,0,1.9,0.1,2.9c0.1,3.1,1.8,8.5,4.7,15.1c1.6,3.7,2.3,7.7,2.1,11.8   c-0.2,3.3-0.9,6.5-2.1,9.5C93.5,127.3,92.6,128,91.6,128L91.6,128z M69.2,113.6l20.8,8.6c0.5-1.8,0.9-3.7,1-5.6   c0.2-3.2-0.4-6.5-1.7-9.4l0,0c-2.2-5.1-4.9-12.1-5.1-16.9c0-1-0.1-2-0.1-3c-0.1-3.8-0.2-8.6-1.8-10.1c-0.5-0.4-1.2-0.6-1.9-0.5   c-0.3,0-0.9,0-1.6,1.3c-0.7,1.2-2.3,1.5-3.4,0.8c-1-0.6-1.5-2-1-3.1L83.5,54c0.6-1.5-0.1-3.2-1.5-3.8c-1.4-0.6-2.9,0-3.7,1.2   L66.3,72.2c-3.7,7.1-4.4,15.3-2,23l4.5,14.6c0,0.1,0,0.1,0,0.2C69.1,111.1,69.2,112.3,69.2,113.6L69.2,113.6z"/>
	<path class="st7" d="M74.2,93.7c-1.3,0-2.4-1.1-2.5-2.4c0-0.4-0.4-9.8,2.4-15.2c0.6-1.2,2.1-1.7,3.4-1.1c1.2,0.6,1.7,2.1,1.1,3.4   c-1.8,3.5-2,10.4-1.8,12.7c0.1,1.4-1,2.5-2.4,2.6L74.2,93.7z"/>
	<path class="st7" d="M42.1,232.5c-1.4,0-2.5-1.1-2.5-2.5c0-1.4,1.1-2.5,2.5-2.5c0.2,0,0.4,0,0.6,0l0.1,0c1.4-0.1,2.6,1,2.7,2.3   c0.1,1.4-0.9,2.5-2.3,2.7l-0.8,0.1C42.2,232.5,42.2,232.5,42.1,232.5z"/>
	<path class="st7" d="M175.6,256h-93c-3.3,0-6-2.7-6-6v-19.8c0-0.3-0.3-0.6-0.6-0.6c0,0,0,0,0,0l-31.9,2.7c-1.4,0.1-2.6-0.9-2.7-2.3   c-0.1-1.3,0.9-2.5,2.2-2.7c6.2-0.7,11.5-4.8,13.8-10.5l12.7-31.5c0.3-0.8,1-1.4,1.9-1.5l17.2-3.1c1.2-0.2,2.4,0.5,2.8,1.7l9.8,29.3   c0.3,0.6,1,0.8,1.5,0.6c0.2-0.1,0.3-0.2,0.4-0.3l12.5-15.6c0.9-1.1,2.4-1.2,3.5-0.4c0.2,0.2,0.4,0.4,0.5,0.6   c0.3,0.4,0.8,0.7,1.3,0.7h14.3c0.6,0,1.1-0.3,1.4-0.9c0.6-1.2,2.1-1.8,3.3-1.2c0.3,0.2,0.6,0.4,0.9,0.7l12.9,16.1   c0.4,0.5,1.1,0.6,1.6,0.2c0.1-0.1,0.2-0.3,0.3-0.4l9.8-29.3c0.4-1.2,1.6-1.9,2.8-1.7l14.9,2.7c0.8,0.2,1.6,0.7,1.9,1.5l12.8,31.9   c2.1,5.2,6.7,9,12.1,10.2c1.3,0.3,2.2,1.6,1.9,3c-0.3,1.2-1.4,2-2.6,1.9l-27.7-2.3c-0.3,0-0.6,0.2-0.6,0.5c0,0,0,0,0,0V250   C181.6,253.3,178.9,256,175.6,256z M76,224.6c3.1,0,5.6,2.5,5.6,5.6c0,0,0,0,0,0V250c0,0.5,0.4,1,1,1h93c0.5,0,1-0.4,1-1v-19.8   c0-3.1,2.5-5.6,5.6-5.6c0.2,0,0.3,0,0.5,0l16.2,1.4c-2.1-2.1-3.8-4.6-4.9-7.3l0,0l-12.3-30.6l-11.4-2l-9.1,27.4   c0,0.1,0,0.1-0.1,0.1c-1.3,3.2-4.9,4.7-8,3.4c-1-0.4-1.8-1-2.5-1.8l-11.1-13.9c-1,0.7-2.3,1-3.5,1h-14.3c-1.1,0-2.1-0.3-3-0.8   l-10.9,13.6c-2.1,2.7-6,3.1-8.7,0.9c-0.8-0.7-1.5-1.5-1.8-2.5c0,0,0-0.1-0.1-0.1L88,186l-13.7,2.5l-12.1,30.2   c-1.2,2.8-2.9,5.4-5.1,7.5l18.6-1.5C75.7,224.6,75.9,224.6,76,224.6z"/>
	<path class="st7" d="M129.1,153.3c-4.5,0-8.9-1.5-12.4-4.4c-7.1-6.1-6.9-15.6-6.6-19.5c0.2-1.9,1.9-3.4,3.9-3.2   c0.2,0,0.5,0.1,0.7,0.1c4.7,1.4,9.5,2.3,14.4,2.4c4.9-0.1,9.7-1,14.4-2.4c1.9-0.6,3.8,0.5,4.4,2.4c0.1,0.2,0.1,0.4,0.1,0.7l0,0   c0.4,3.8,0.5,13.4-6.6,19.5C138,151.8,133.6,153.3,129.1,153.3z M115,131.7c-0.1,3.6,0.5,9.6,5,13.4c5.3,4.2,12.9,4.2,18.2,0   c4.4-3.8,5.1-9.8,5-13.4c-4.6,1.3-9.3,2-14.1,2.1C124.3,133.7,119.6,133,115,131.7L115,131.7z"/>
	<path class="st7" d="M129.1,141.7c-5.7-0.1-11.4-1.1-16.9-2.8c-0.9-0.3-1.6-1-1.8-2c-0.4-2.5-0.5-5.1-0.2-7.6   c0.2-1.9,1.9-3.4,3.9-3.2c0.2,0,0.5,0.1,0.7,0.1c4.7,1.4,9.5,2.3,14.4,2.4c4.9-0.1,9.7-1,14.4-2.4c1.9-0.6,3.8,0.5,4.4,2.4   c0.1,0.2,0.1,0.4,0.1,0.7c0.2,2.5,0.2,5.1-0.2,7.6c-0.2,0.9-0.8,1.7-1.8,2C140.5,140.7,134.8,141.6,129.1,141.7z M115.1,134.6   c4.5,1.3,9.2,2,13.9,2.1c4.7-0.1,9.4-0.8,13.9-2.1c0.1-1,0.1-2,0.1-3c-4.6,1.3-9.3,2-14.1,2.1c-4.8-0.1-9.5-0.8-14.1-2.1   C115,132.7,115,133.7,115.1,134.6L115.1,134.6z"/>
	<path class="st7" d="M150.4,116.7c-0.3,0-0.6-0.1-0.8-0.1l-9.1-3.3c-1.3-0.5-2-1.9-1.5-3.2c0.2-0.5,0.5-0.9,0.9-1.2l9.1-6.2   c1.1-0.8,2.7-0.5,3.5,0.6c0.8,1.1,0.5,2.7-0.6,3.5c0,0,0,0-0.1,0l-5.1,3.5l4.5,1.6c1.3,0.5,2,1.9,1.5,3.2   C152.4,116,151.5,116.7,150.4,116.7L150.4,116.7z"/>
	<path class="st7" d="M107.7,116.7c-1.4,0-2.5-1.1-2.5-2.5c0-1.1,0.7-2,1.7-2.4l4.5-1.6l-5.1-3.5c-1.2-0.8-1.5-2.3-0.7-3.5   c0.8-1.2,2.3-1.5,3.5-0.7c0,0,0,0,0.1,0l9.1,6.2c1.1,0.8,1.4,2.3,0.7,3.5c-0.3,0.4-0.7,0.8-1.2,0.9l-9.1,3.3   C108.3,116.6,108,116.7,107.7,116.7z"/>
	<path class="st7" d="M129.1,218.3c-0.7,0-1.3-0.3-1.8-0.7c-0.1-0.1-0.2-0.2-0.3-0.4c-0.2-0.3-0.3-0.6-0.4-0.9   c0-0.2-0.1-0.3-0.1-0.5c0-0.7,0.3-1.3,0.7-1.8c0.6-0.6,1.4-0.8,2.3-0.7c0.2,0,0.3,0.1,0.5,0.1c0.2,0.1,0.3,0.1,0.4,0.2   c0.1,0.1,0.3,0.2,0.4,0.3c0.5,0.5,0.7,1.1,0.7,1.8c0,0.2,0,0.3-0.1,0.5c0,0.2-0.1,0.3-0.1,0.5c-0.1,0.1-0.1,0.3-0.2,0.4   c-0.1,0.1-0.2,0.3-0.3,0.4c-0.1,0.1-0.3,0.2-0.4,0.3c-0.1,0.1-0.3,0.2-0.4,0.2c-0.1,0.1-0.3,0.1-0.5,0.1   C129.4,218.3,129.3,218.3,129.1,218.3z"/>
	<path class="st7" d="M129.1,232.8c-0.7,0-1.3-0.3-1.8-0.7c-0.1-0.1-0.2-0.2-0.3-0.4c-0.1-0.1-0.2-0.3-0.2-0.4   c-0.1-0.2-0.1-0.3-0.1-0.5c0-0.2-0.1-0.3-0.1-0.5c0-0.7,0.3-1.3,0.7-1.8c0.6-0.6,1.4-0.8,2.3-0.7c0.2,0,0.3,0.1,0.5,0.1   c0.2,0.1,0.3,0.1,0.4,0.2c0.1,0.1,0.3,0.2,0.4,0.3c0.5,0.5,0.7,1.1,0.7,1.8c0,0.2,0,0.3-0.1,0.5c0,0.2-0.1,0.3-0.1,0.5   c-0.1,0.1-0.1,0.3-0.2,0.4c-0.2,0.3-0.4,0.5-0.7,0.7c-0.1,0.1-0.3,0.2-0.4,0.2c-0.1,0.1-0.3,0.1-0.5,0.1   C129.4,232.8,129.3,232.8,129.1,232.8z"/>
</g>
</svg>
