<svg viewBox="0 -22 512.00001 512" xmlns="http://www.w3.org/2000/svg"><path d="m437.683594 308.179688h-65.667969c-8.234375 0-14.910156-6.679688-14.910156-14.914063s6.675781-14.914063 14.910156-14.914063h65.667969c24.53125 0 44.492187-19.957031 44.492187-44.488281s-19.960937-44.488281-44.492187-44.488281h-64.867188c-8.238281 0-14.914062-6.675781-14.914062-14.914062 0-8.234376 6.675781-14.910157 14.914062-14.910157h64.867188c40.980468 0 74.316406 33.335938 74.316406 74.3125 0 40.976563-33.335938 74.316407-74.316406 74.316407zm0 0" fill="#00695c"/><path d="m372.816406 139.167969h-357.902344c-8.238281 0-14.914062 6.675781-14.914062 14.914062v99.417969c0 84.96875 69.128906 154.097656 154.097656 154.097656h79.535156c84.96875 0 154.09375-69.128906 154.09375-154.097656v-99.417969c0-8.238281-6.675781-14.914062-14.910156-14.914062zm0 0" fill="#e0f2f1"/><path d="m372.816406 377.753906h-357.902344c-8.238281 0-14.914062 6.675782-14.914062 14.914063v29.855469c0 24.667968 20.070312 44.738281 44.738281 44.738281h298.253907c24.667968 0 44.734374-20.070313 44.734374-44.738281v-29.855469c0-8.238281-6.675781-14.914063-14.910156-14.914063zm0 0" fill="#00796b"/><path d="m372.816406 139.167969h-178.953125v268.429687h39.769531c84.96875 0 154.09375-69.128906 154.09375-154.097656v-99.417969c0-8.238281-6.675781-14.914062-14.910156-14.914062zm0 0" fill="#b2dfdb"/><path d="m372.816406 377.753906h-178.953125v89.507813h149.128907c24.667968 0 44.734374-20.070313 44.734374-44.738281v-29.855469c0-8.238281-6.675781-14.914063-14.910156-14.914063zm0 0" fill="#00695c"/><path d="m124.664062 109.359375c-8.234374 0-14.910156-6.675781-14.910156-14.914063 0-6.421874-1.28125-8.976562-3.398437-13.214843-2.761719-5.523438-6.542969-13.089844-6.542969-26.550781 0-13.460938 3.78125-21.027344 6.542969-26.550782 2.117187-4.238281 3.398437-6.792968 3.398437-13.214844 0-8.238281 6.675782-14.914062 14.910156-14.914062 8.238282 0 14.914063 6.675781 14.914063 14.914062 0 13.460938-3.78125 21.027344-6.542969 26.550782-2.121094 4.238281-3.398437 6.792968-3.398437 13.214844 0 6.421874 1.277343 8.976562 3.398437 13.214843 2.761719 5.523438 6.542969 13.089844 6.542969 26.550781 0 8.238282-6.675781 14.914063-14.914063 14.914063zm0 0" fill="#a5d6a7"/><path d="m203.804688 109.359375c-8.234376 0-14.910157-6.675781-14.910157-14.914063 0-6.421874-1.28125-8.976562-3.398437-13.214843-2.761719-5.523438-6.542969-13.089844-6.542969-26.550781 0-13.460938 3.78125-21.027344 6.542969-26.550782 2.117187-4.238281 3.398437-6.792968 3.398437-13.214844 0-8.238281 6.675781-14.914062 14.910157-14.914062 8.238281 0 14.914062 6.675781 14.914062 14.914062 0 13.460938-3.78125 21.027344-6.546875 26.550782-2.117187 4.238281-3.394531 6.792968-3.394531 13.214844 0 6.421874 1.277344 8.976562 3.394531 13.214843 2.765625 5.523438 6.546875 13.089844 6.546875 26.550781 0 8.238282-6.675781 14.914063-14.914062 14.914063zm0 0" fill="#a5d6a7"/><path d="m208.777344 54.679688c0-6.421876 1.277344-8.976563 3.394531-13.214844 2.765625-5.523438 6.546875-13.089844 6.546875-26.550782 0-8.238281-6.675781-14.914062-14.914062-14.914062-1.746094 0-3.414063.316406-4.96875.867188v107.625c1.554687.550781 3.222656.867187 4.96875.867187 8.238281 0 14.914062-6.675781 14.914062-14.914063 0-13.460937-3.78125-21.027343-6.546875-26.550781-2.117187-4.238281-3.394531-6.792969-3.394531-13.214843zm0 0" fill="#81c784"/><path d="m282.945312 109.359375c-8.234374 0-14.910156-6.675781-14.910156-14.914063 0-6.421874-1.28125-8.976562-3.398437-13.214843-2.761719-5.523438-6.546875-13.089844-6.546875-26.550781 0-13.460938 3.785156-21.027344 6.546875-26.550782 2.117187-4.238281 3.398437-6.792968 3.398437-13.214844 0-8.238281 6.675782-14.914062 14.910156-14.914062 8.238282 0 14.914063 6.675781 14.914063 14.914062 0 13.460938-3.785156 21.027344-6.546875 26.550782-2.117188 4.238281-3.394531 6.792968-3.394531 13.214844 0 6.421874 1.277343 8.976562 3.394531 13.214843 2.761719 5.523438 6.546875 13.089844 6.546875 26.550781 0 8.238282-6.675781 14.914063-14.914063 14.914063zm0 0" fill="#a5d6a7"/><path d="m258.777344 285.621094c-.960938-23.316406-7.730469-41.421875-20.121094-53.816406-13.5625-13.5625-28.785156-21.308594-44.023438-22.402344-10.015624-.71875-19.714843 1.488281-28.332031 6.289062l-12.003906-12.007812c-5.824219-5.820313-15.265625-5.820313-21.089844 0-5.824219 5.824218-5.824219 15.265625 0 21.089844l12.007813 12.007812c-4.800782 8.613281-7.007813 18.316406-6.289063 28.328125 1.09375 15.238281 8.839844 30.460937 22.402344 44.023437 12.390625 12.394532 30.496094 19.164063 53.816406 20.121094 1.886719.078125 3.730469.113282 5.515625.113282 13.597656 0 23.898438-1.988282 24.386719-2.085938 5.941406-1.167969 10.589844-5.8125 11.757813-11.757812.105468-.550782 2.640624-13.664063 1.972656-29.902344zm0 0" fill="#a5d6a7"/><g fill="#81c784"><path d="m238.65625 231.808594c-13.5625-13.566406-28.785156-21.3125-44.023438-22.402344-.257812-.019531-.511718-.027344-.769531-.042969v117.054688c6.523438 1.566406 13.613281 2.523437 21.28125 2.835937 1.886719.078125 3.730469.113282 5.515625.113282 13.597656 0 23.898438-1.988282 24.386719-2.085938 5.941406-1.167969 10.589844-5.8125 11.757813-11.757812.105468-.550782 2.640624-13.664063 1.972656-29.902344-.960938-23.316406-7.730469-41.421875-20.121094-53.8125zm0 0"/><path d="m288.3125 54.679688c0-6.421876 1.277344-8.976563 3.394531-13.214844 2.761719-5.523438 6.546875-13.089844 6.546875-26.550782 0-8.238281-6.679687-14.914062-14.914062-14.914062-1.746094 0-3.414063.316406-4.972656.867188v107.625c1.558593.550781 3.226562.867187 4.972656.867187 8.234375 0 14.914062-6.675781 14.914062-14.914063 0-13.460937-3.785156-21.027343-6.546875-26.550781-2.117187-4.238281-3.394531-6.792969-3.394531-13.214843zm0 0"/><path d="m129.242188 54.679688c0-6.421876 1.277343-8.976563 3.398437-13.214844 2.761719-5.523438 6.542969-13.089844 6.542969-26.550782 0-8.238281-6.675782-14.914062-14.910156-14.914062-1.746094 0-3.414063.316406-4.972657.867188v107.625c1.558594.550781 3.226563.867187 4.972657.867187 8.234374 0 14.910156-6.675781 14.910156-14.914063 0-13.460937-3.78125-21.027343-6.542969-26.550781-2.121094-4.238281-3.398437-6.792969-3.398437-13.214843zm0 0"/></g></svg>